<?xml version="1.0" encoding="UTF-8" standalone="no"?>
<!DOCTYPE svg PUBLIC "-//W3C//DTD SVG 1.1//EN"
 "http://www.w3.org/Graphics/SVG/1.1/DTD/svg11.dtd">
<!-- Generated by graphviz version 2.26.3 (20100126.1600)
 -->
<!-- Title: G Pages: 1 -->
<svg width="1306pt" height="342pt"
 viewBox="0.00 0.00 1306.00 342.00" xmlns="http://www.w3.org/2000/svg" xmlns:xlink="http://www.w3.org/1999/xlink">
<g id="graph1" class="graph" transform="scale(1 1) rotate(0) translate(4 338)">
<title>G</title>
<polygon fill="white" stroke="white" points="-4,5 -4,-338 1303,-338 1303,5 -4,5"/>
<!-- 1b 1c 1p -->
<g id="node1" class="node"><title>1b 1c 1p</title>
<ellipse fill="none" stroke="black" cx="737" cy="-315" rx="84.8528" ry="18.3848"/>
<text text-anchor="middle" x="737" y="-311.4" font-family="Times Roman,serif" font-size="14.00">1b+1c+1p=3p</text>
</g>
<!-- 1c 2c 1b -->
<g id="node2" class="node"><title>1c 2c 1b</title>
<ellipse fill="none" stroke="black" cx="602" cy="-241" rx="84.1457" ry="18.3848"/>
<text text-anchor="middle" x="602" y="-237.4" font-family="Times Roman,serif" font-size="14.00">1c+2c+1b=4p</text>
</g>
<!-- 1b 1c 1p&#45;&gt;1c 2c 1b -->
<g id="edge6" class="edge"><title>1b 1c 1p&#45;&gt;1c 2c 1b</title>
<path fill="none" stroke="black" d="M705.348,-297.65C686.56,-287.352 662.552,-274.192 642.406,-263.148"/>
<polygon fill="black" stroke="black" points="643.905,-259.979 633.453,-258.241 640.54,-266.117 643.905,-259.979"/>
</g>
<!-- 2p 1p 1b -->
<g id="node13" class="node"><title>2p 1p 1b</title>
<ellipse fill="none" stroke="black" cx="954" cy="-241" rx="53.9477" ry="18.3848"/>
<text text-anchor="middle" x="954" y="-237.4" font-family="Times Roman,serif" font-size="14.00">2p 1p 1b</text>
</g>
<!-- 1b 1c 1p&#45;&gt;2p 1p 1b -->
<g id="edge8" class="edge"><title>1b 1c 1p&#45;&gt;2p 1p 1b</title>
<path fill="none" stroke="black" d="M782.755,-299.397C818.939,-287.058 869.309,-269.881 906.051,-257.351"/>
<polygon fill="black" stroke="black" points="907.22,-260.651 915.555,-254.11 904.96,-254.025 907.22,-260.651"/>
</g>
<!-- 2c 1c 2p -->
<g id="node4" class="node"><title>2c 1c 2p</title>
<ellipse fill="none" stroke="black" cx="322" cy="-167" rx="145.872" ry="18.3848"/>
<text text-anchor="middle" x="322" y="-163.4" font-family="Times Roman,serif" font-size="14.00">2c+1c+2p=5p (Pentatonic)</text>
</g>
<!-- 1c 2c 1b&#45;&gt;2c 1c 2p -->
<g id="edge10" class="edge"><title>1c 2c 1b&#45;&gt;2c 1c 2p</title>
<path fill="none" stroke="black" d="M548.013,-226.732C504.452,-215.219 442.752,-198.913 394.821,-186.246"/>
<polygon fill="black" stroke="black" points="395.683,-182.853 385.121,-183.682 393.895,-189.621 395.683,-182.853"/>
</g>
<!-- 3p 1b 1c -->
<g id="node16" class="node"><title>3p 1b 1c</title>
<ellipse fill="none" stroke="black" cx="602" cy="-167" rx="53.2379" ry="18.3848"/>
<text text-anchor="middle" x="602" y="-163.4" font-family="Times Roman,serif" font-size="14.00">3p 1b 1c</text>
</g>
<!-- 1c 2c 1b&#45;&gt;3p 1b 1c -->
<g id="edge12" class="edge"><title>1c 2c 1b&#45;&gt;3p 1b 1c</title>
<path fill="none" stroke="black" d="M602,-222.327C602,-214.264 602,-204.648 602,-195.711"/>
<polygon fill="black" stroke="black" points="605.5,-195.667 602,-185.667 598.5,-195.667 605.5,-195.667"/>
</g>
<!-- 1c 4p 2c -->
<g id="node3" class="node"><title>1c 4p 2c</title>
<ellipse fill="none" stroke="black" cx="84" cy="-93" rx="84.1457" ry="18.3848"/>
<text text-anchor="middle" x="84" y="-89.4" font-family="Times Roman,serif" font-size="14.00">1c+4p+2c=7p</text>
</g>
<!-- 2c 1c 2p&#45;&gt;1c 4p 2c -->
<g id="edge22" class="edge"><title>2c 1c 2p&#45;&gt;1c 4p 2c</title>
<path fill="none" stroke="black" d="M266.8,-149.837C229.614,-138.275 180.626,-123.044 142.724,-111.259"/>
<polygon fill="black" stroke="black" points="143.433,-107.814 132.845,-108.187 141.355,-114.498 143.433,-107.814"/>
</g>
<!-- 3p 2p 2c -->
<g id="node5" class="node"><title>3p 2p 2c</title>
<ellipse fill="none" stroke="black" cx="322" cy="-93" rx="135.765" ry="18.3848"/>
<text text-anchor="middle" x="322" y="-89.4" font-family="Times Roman,serif" font-size="14.00">3p+2p+2c=7p (Diatonic)</text>
</g>
<!-- 2c 1c 2p&#45;&gt;3p 2p 2c -->
<g id="edge24" class="edge"><title>2c 1c 2p&#45;&gt;3p 2p 2c</title>
<path fill="none" stroke="black" d="M322,-148.327C322,-140.264 322,-130.648 322,-121.711"/>
<polygon fill="black" stroke="black" points="325.5,-121.667 322,-111.667 318.5,-121.667 325.5,-121.667"/>
</g>
<!-- 2p 5c 3p -->
<g id="node34" class="node"><title>2p 5c 3p</title>
<ellipse fill="none" stroke="black" cx="260" cy="-19" rx="53.2379" ry="18.3848"/>
<text text-anchor="middle" x="260" y="-15.4" font-family="Times Roman,serif" font-size="14.00">2p 5c 3p</text>
</g>
<!-- 3p 2p 2c&#45;&gt;2p 5c 3p -->
<g id="edge34" class="edge"><title>3p 2p 2c&#45;&gt;2p 5c 3p</title>
<path fill="none" stroke="black" d="M306.355,-74.3267C298.844,-65.362 289.724,-54.4771 281.567,-44.7416"/>
<polygon fill="black" stroke="black" points="284.104,-42.319 274.999,-36.9015 278.738,-46.8145 284.104,-42.319"/>
</g>
<!-- 5p 2c 3p -->
<g id="node36" class="node"><title>5p 2c 3p</title>
<ellipse fill="none" stroke="black" cx="384" cy="-19" rx="53.2379" ry="18.3848"/>
<text text-anchor="middle" x="384" y="-15.4" font-family="Times Roman,serif" font-size="14.00">5p 2c 3p</text>
</g>
<!-- 3p 2p 2c&#45;&gt;5p 2c 3p -->
<g id="edge36" class="edge"><title>3p 2p 2c&#45;&gt;5p 2c 3p</title>
<path fill="none" stroke="black" d="M337.645,-74.3267C345.156,-65.362 354.276,-54.4771 362.433,-44.7416"/>
<polygon fill="black" stroke="black" points="365.262,-46.8145 369.001,-36.9015 359.896,-42.319 365.262,-46.8145"/>
</g>
<!-- 2p 1p 4p -->
<g id="node6" class="node"><title>2p 1p 4p</title>
<ellipse fill="none" stroke="black" cx="872" cy="-93" rx="135.765" ry="18.3848"/>
<text text-anchor="middle" x="872" y="-89.4" font-family="Times Roman,serif" font-size="14.00">2p+1p+4p=7p (Marvel7)</text>
</g>
<!-- 3p 4p 2p -->
<g id="node21" class="node"><title>3p 4p 2p</title>
<ellipse fill="none" stroke="black" cx="1080" cy="-19" rx="53.9477" ry="18.3848"/>
<text text-anchor="middle" x="1080" y="-15.4" font-family="Times Roman,serif" font-size="14.00">3p 4p 2p</text>
</g>
<!-- 2p 1p 4p&#45;&gt;3p 4p 2p -->
<g id="edge18" class="edge"><title>2p 1p 4p&#45;&gt;3p 4p 2p</title>
<path fill="none" stroke="black" d="M920.767,-75.6503C954.537,-63.636 999.252,-47.7278 1032.7,-35.8284"/>
<polygon fill="black" stroke="black" points="1034,-39.0788 1042.25,-32.4293 1031.66,-32.4837 1034,-39.0788"/>
</g>
<!-- 1p 2p 6b -->
<g id="node23" class="node"><title>1p 2p 6b</title>
<ellipse fill="none" stroke="black" cx="872" cy="-19" rx="53.9477" ry="18.3848"/>
<text text-anchor="middle" x="872" y="-15.4" font-family="Times Roman,serif" font-size="14.00">1p 2p 6b</text>
</g>
<!-- 2p 1p 4p&#45;&gt;1p 2p 6b -->
<g id="edge20" class="edge"><title>2p 1p 4p&#45;&gt;1p 2p 6b</title>
<path fill="none" stroke="black" d="M872,-74.3267C872,-66.2639 872,-56.6477 872,-47.7115"/>
<polygon fill="black" stroke="black" points="875.5,-47.6673 872,-37.6674 868.5,-47.6674 875.5,-47.6673"/>
</g>
<!-- 1p 2p 3b -->
<g id="node7" class="node"><title>1p 2p 3b</title>
<ellipse fill="none" stroke="black" cx="954" cy="-167" rx="53.9477" ry="18.3848"/>
<text text-anchor="middle" x="954" y="-163.4" font-family="Times Roman,serif" font-size="14.00">1p 2p 3b</text>
</g>
<!-- 1p 2p 3b&#45;&gt;2p 1p 4p -->
<g id="edge2" class="edge"><title>1p 2p 3b&#45;&gt;2p 1p 4p</title>
<path fill="none" stroke="black" d="M934.567,-149.463C924.254,-140.156 911.397,-128.553 900.024,-118.29"/>
<polygon fill="black" stroke="black" points="902.206,-115.545 892.438,-111.444 897.517,-120.742 902.206,-115.545"/>
</g>
<!-- 3p 3b 1p -->
<g id="node10" class="node"><title>3p 3b 1p</title>
<ellipse fill="none" stroke="black" cx="1080" cy="-93" rx="53.9477" ry="18.3848"/>
<text text-anchor="middle" x="1080" y="-89.4" font-family="Times Roman,serif" font-size="14.00">3p 3b 1p</text>
</g>
<!-- 1p 2p 3b&#45;&gt;3p 3b 1p -->
<g id="edge4" class="edge"><title>1p 2p 3b&#45;&gt;3p 3b 1p</title>
<path fill="none" stroke="black" d="M981.34,-150.943C999.668,-140.179 1024,-125.89 1043.91,-114.194"/>
<polygon fill="black" stroke="black" points="1045.86,-117.108 1052.71,-109.026 1042.32,-111.072 1045.86,-117.108"/>
</g>
<!-- 2p 1p 1b&#45;&gt;1p 2p 3b -->
<g id="edge14" class="edge"><title>2p 1p 1b&#45;&gt;1p 2p 3b</title>
<path fill="none" stroke="black" d="M954,-222.327C954,-214.264 954,-204.648 954,-195.711"/>
<polygon fill="black" stroke="black" points="957.5,-195.667 954,-185.667 950.5,-195.667 957.5,-195.667"/>
</g>
<!-- 3p 1b 2p -->
<g id="node19" class="node"><title>3p 1b 2p</title>
<ellipse fill="none" stroke="black" cx="1162" cy="-167" rx="53.9477" ry="18.3848"/>
<text text-anchor="middle" x="1162" y="-163.4" font-family="Times Roman,serif" font-size="14.00">3p 1b 2p</text>
</g>
<!-- 2p 1p 1b&#45;&gt;3p 1b 2p -->
<g id="edge16" class="edge"><title>2p 1p 1b&#45;&gt;3p 1b 2p</title>
<path fill="none" stroke="black" d="M991.667,-227.599C1026.16,-215.326 1077.37,-197.108 1114.63,-183.853"/>
<polygon fill="black" stroke="black" points="1116.01,-187.075 1124.26,-180.426 1113.67,-180.48 1116.01,-187.075"/>
</g>
<!-- 3p 1b 4bc -->
<g id="node27" class="node"><title>3p 1b 4bc</title>
<ellipse fill="none" stroke="black" cx="535" cy="-93" rx="58.8978" ry="18.3848"/>
<text text-anchor="middle" x="535" y="-89.4" font-family="Times Roman,serif" font-size="14.00">3p 1b 4bc</text>
</g>
<!-- 3p 1b 1c&#45;&gt;3p 1b 4bc -->
<g id="edge26" class="edge"><title>3p 1b 1c&#45;&gt;3p 1b 4bc</title>
<path fill="none" stroke="black" d="M585.781,-149.087C577.53,-139.974 567.353,-128.734 558.282,-118.714"/>
<polygon fill="black" stroke="black" points="560.608,-116.069 551.302,-111.005 555.419,-120.767 560.608,-116.069"/>
</g>
<!-- 4p 3p 1c -->
<g id="node29" class="node"><title>4p 3p 1c</title>
<ellipse fill="none" stroke="black" cx="665" cy="-93" rx="53.2379" ry="18.3848"/>
<text text-anchor="middle" x="665" y="-89.4" font-family="Times Roman,serif" font-size="14.00">4p 3p 1c</text>
</g>
<!-- 3p 1b 1c&#45;&gt;4p 3p 1c -->
<g id="edge28" class="edge"><title>3p 1b 1c&#45;&gt;4p 3p 1c</title>
<path fill="none" stroke="black" d="M617.251,-149.087C625.066,-139.906 634.72,-128.567 643.297,-118.492"/>
<polygon fill="black" stroke="black" points="646.072,-120.632 649.89,-110.748 640.742,-116.094 646.072,-120.632"/>
</g>
<!-- 3p 1b 2p&#45;&gt;3p 4p 2p -->
<g id="edge32" class="edge"><title>3p 1b 2p&#45;&gt;3p 4p 2p</title>
<path fill="none" stroke="black" d="M1161.65,-148.287C1160.52,-128.569 1156.52,-97.2126 1143,-74 1135.78,-61.6021 1124.75,-50.5808 1113.92,-41.7206"/>
<polygon fill="black" stroke="black" points="1115.8,-38.7447 1105.75,-35.3793 1111.5,-44.275 1115.8,-38.7447"/>
</g>
<!-- 3p 1b 5p -->
<g id="node31" class="node"><title>3p 1b 5p</title>
<ellipse fill="none" stroke="black" cx="1244" cy="-93" rx="53.9477" ry="18.3848"/>
<text text-anchor="middle" x="1244" y="-89.4" font-family="Times Roman,serif" font-size="14.00">3p 1b 5p</text>
</g>
<!-- 3p 1b 2p&#45;&gt;3p 1b 5p -->
<g id="edge30" class="edge"><title>3p 1b 2p&#45;&gt;3p 1b 5p</title>
<path fill="none" stroke="black" d="M1181.43,-149.463C1192.05,-139.879 1205.37,-127.858 1216.99,-117.375"/>
<polygon fill="black" stroke="black" points="1219.63,-119.709 1224.71,-110.411 1214.94,-114.512 1219.63,-119.709"/>
</g>
</g>
</svg>
