<?xml version="1.0" encoding="UTF-8" standalone="no"?>
<!-- Created with Inkscape (http://www.inkscape.org/) -->
<svg
   xmlns:dc="http://purl.org/dc/elements/1.1/"
   xmlns:cc="http://web.resource.org/cc/"
   xmlns:rdf="http://www.w3.org/1999/02/22-rdf-syntax-ns#"
   xmlns:svg="http://www.w3.org/2000/svg"
   xmlns="http://www.w3.org/2000/svg"
   xmlns:sodipodi="http://sodipodi.sourceforge.net/DTD/sodipodi-0.dtd"
   xmlns:inkscape="http://www.inkscape.org/namespaces/inkscape"
   width="595.54114"
   height="586.76746"
   id="svg2"
   sodipodi:version="0.32"
   inkscape:version="0.45"
   version="1.0"
   sodipodi:docbase="/home/david/Desktop/Link to Inkscape Files/Wiki"
   sodipodi:docname="Chordal.svg"
   inkscape:output_extension="org.inkscape.output.svg.inkscape"
   sodipodi:modified="true">
  <defs
     id="defs4" />
  <sodipodi:namedview
     id="base"
     pagecolor="#ffffff"
     bordercolor="#666666"
     borderopacity="1.0"
     gridtolerance="10000"
     guidetolerance="10"
     objecttolerance="10"
     inkscape:pageopacity="0.0"
     inkscape:pageshadow="2"
     inkscape:zoom="0.7"
     inkscape:cx="502.77757"
     inkscape:cy="351.61168"
     inkscape:document-units="px"
     inkscape:current-layer="layer1"
     showgrid="false"
     inkscape:window-width="1280"
     inkscape:window-height="948"
     inkscape:window-x="0"
     inkscape:window-y="24" />
  <metadata
     id="metadata7">
    <rdf:RDF>
      <cc:Work
         rdf:about="">
        <dc:format>image/svg+xml</dc:format>
        <dc:type
           rdf:resource="http://purl.org/dc/dcmitype/StillImage" />
      </cc:Work>
    </rdf:RDF>
  </metadata>
  <g
     inkscape:label="Layer 1"
     inkscape:groupmode="layer"
     id="layer1"
     transform="translate(-71.05429,-452.3944)">
    <g
       id="g3780"
       transform="matrix(0.9664171,0,0,0.9664171,12.386209,25.045395)">
      <path
         id="path2256"
         d="M 559.64906,935.62265 L 503.87929,977.88242 L 439.07221,1004.2679 L 369.64429,1012.9811 L 300.32694,1003.4281 L 235.84402,976.25995 L 180.58993,933.32813 L 138.33016,877.55836 L 111.94463,812.75128 L 103.23148,743.32336 L 112.78448,674.00601 L 139.95263,609.52308 L 182.88445,554.269 L 238.65422,512.00923 L 303.4613,485.6237 L 372.88922,476.91055 L 442.20657,486.46355 L 506.6895,513.6317 L 561.94358,556.56352 L 604.20335,612.33328 L 630.58888,677.14037 L 639.30203,746.56829 L 629.74903,815.88564 L 602.58088,880.36856 L 559.64906,935.62265 z "
         inkscape:transform-center-y="-270.27568"
         inkscape:transform-center-x="-2.3861217"
         style="fill:none;fill-opacity:1;fill-rule:nonzero;stroke:#00ff00;stroke-width:1;stroke-linejoin:bevel;stroke-miterlimit:4;stroke-opacity:1" />
      <path
         id="flowRoot3256"
         d="M 640.18945,497.02767 L 639.13477,497.02767 L 639.13477,490.30696 C 638.88086,490.54916 638.54687,490.79135 638.13281,491.03353 C 637.72265,491.27572 637.35351,491.45736 637.02539,491.57845 L 637.02539,490.55892 C 637.61523,490.28158 638.13086,489.94564 638.57227,489.5511 C 639.01367,489.15658 639.32617,488.77377 639.50977,488.40267 L 640.18945,488.40267 L 640.18945,497.02767"
         style="font-family:Arial"
         transform="matrix(2.2883105,0,0,2.2883105,-820.18142,-451.21146)" />
      <path
         id="path3265"
         d="M 630.17857,677.00504 L 238.14346,512.18311"
         style="fill:none;fill-rule:evenodd;stroke:#000000;stroke-width:1px;stroke-linecap:butt;stroke-linejoin:miter;stroke-opacity:1" />
      <path
         id="path3267"
         d="M 604.13865,612.26348 L 438.17394,1003.8162"
         style="fill:none;fill-rule:evenodd;stroke:#000000;stroke-width:1px;stroke-linecap:butt;stroke-linejoin:miter;stroke-opacity:1" />
      <path
         style="fill:none;fill-rule:evenodd;stroke:#000000;stroke-width:1px;stroke-linecap:butt;stroke-linejoin:miter;stroke-opacity:1"
         d="M 562.50754,557.01547 L 140.41475,608.93357"
         id="use3269" />
      <path
         id="flowRoot3271"
         d="M 641.75977,496.014 L 641.75977,497.02767 L 636.08203,497.02767 C 636.07422,496.77376 636.11523,496.52962 636.20508,496.29525 C 636.34961,495.90853 636.58008,495.52767 636.89648,495.15267 C 637.2168,494.77767 637.67773,494.34408 638.2793,493.85189 C 639.21289,493.08626 639.84375,492.4808 640.17188,492.03548 C 640.5,491.58627 640.66406,491.16244 640.66406,490.764 C 640.66406,490.34603 640.51367,489.99447 640.21289,489.70931 C 639.91601,489.42025 639.52734,489.27572 639.04688,489.27571 C 638.53906,489.27572 638.13281,489.42807 637.82812,489.73275 C 637.52344,490.03744 637.36914,490.45931 637.36523,490.99837 L 636.28125,490.88704 C 636.35547,490.07846 636.63476,489.46322 637.11914,489.04134 C 637.60351,488.61557 638.2539,488.40268 639.07031,488.40267 C 639.89453,488.40268 640.54687,488.63119 641.02734,489.08821 C 641.50781,489.54525 641.74804,490.11166 641.74805,490.78743 C 641.74804,491.13119 641.67773,491.46908 641.53711,491.8011 C 641.39648,492.13314 641.1621,492.48275 640.83398,492.84993 C 640.50976,493.21712 639.96875,493.72103 639.21094,494.36165 C 638.57812,494.8929 638.17187,495.25423 637.99219,495.44564 C 637.8125,495.63314 637.66406,495.82259 637.54688,496.014 L 641.75977,496.014"
         style="font-family:Arial"
         transform="matrix(2.2883105,0,0,2.2883105,-847.45554,-526.9729)" />
      <path
         id="flowRoot3279"
         d="M 636.22266,494.76009 L 637.27734,494.61946 C 637.39844,495.21712 637.60351,495.64876 637.89258,495.91439 C 638.18554,496.17611 638.54101,496.30696 638.95898,496.30696 C 639.45507,496.30696 639.87304,496.13509 640.21289,495.79134 C 640.55664,495.44759 640.72851,495.02181 640.72852,494.514 C 640.72851,494.02962 640.57031,493.63119 640.25391,493.31868 C 639.9375,493.00228 639.53515,492.84408 639.04688,492.84407 C 638.84765,492.84408 638.59961,492.88314 638.30273,492.96126 L 638.41992,492.03548 C 638.49023,492.0433 638.54687,492.0472 638.58984,492.0472 C 639.03906,492.0472 639.44336,491.93002 639.80273,491.69564 C 640.1621,491.46127 640.34179,491.09994 640.3418,490.61165 C 640.34179,490.22494 640.21093,489.90463 639.94922,489.65071 C 639.6875,489.39682 639.34961,489.26986 638.93555,489.26985 C 638.52539,489.26986 638.18359,489.39877 637.91016,489.65657 C 637.63672,489.91439 637.46094,490.30111 637.38281,490.81673 L 636.32812,490.62923 C 636.45703,489.92221 636.75,489.37533 637.20703,488.9886 C 637.66406,488.59799 638.23242,488.40268 638.91211,488.40267 C 639.38086,488.40268 639.8125,488.50424 640.20703,488.70735 C 640.60156,488.90658 640.90234,489.18002 641.10938,489.52767 C 641.32031,489.87533 641.42578,490.24447 641.42578,490.63509 C 641.42578,491.00619 641.32617,491.34408 641.12695,491.64876 C 640.92773,491.95345 640.63281,492.19564 640.24219,492.37532 C 640.74999,492.49252 641.14453,492.73666 641.42578,493.10775 C 641.70703,493.47494 641.84765,493.93587 641.84766,494.49056 C 641.84765,495.24056 641.57421,495.87728 641.02734,496.40071 C 640.48046,496.92025 639.78906,497.18001 638.95312,497.18001 C 638.19922,497.18001 637.57226,496.9554 637.07227,496.50618 C 636.57617,496.05697 636.29297,495.47493 636.22266,494.76009"
         style="font-family:Arial"
         transform="matrix(2.2883105,0,0,2.2883105,-890.8921,-580.76352)" />
      <path
         id="flowRoot3287"
         d="M 639.59766,497.02767 L 639.59766,494.97103 L 635.87109,494.97103 L 635.87109,494.00423 L 639.79102,488.43782 L 640.65234,488.43782 L 640.65234,494.00423 L 641.8125,494.00423 L 641.8125,494.97103 L 640.65234,494.97103 L 640.65234,497.02767 L 639.59766,497.02767 M 639.59766,494.00423 L 639.59766,490.13118 L 636.9082,494.00423 L 639.59766,494.00423"
         style="font-family:Arial"
         transform="matrix(2.2883105,0,0,2.2883105,-946.96353,-625.04923)" />
      <path
         id="flowRoot3295"
         d="M 636.2168,494.77767 L 637.32422,494.68392 C 637.40625,495.22298 637.5957,495.62923 637.89258,495.90267 C 638.19336,496.1722 638.55468,496.30696 638.97656,496.30696 C 639.48437,496.30696 639.91406,496.11556 640.26562,495.73275 C 640.61718,495.34993 640.79296,494.84212 640.79297,494.20931 C 640.79296,493.60775 640.62304,493.13314 640.2832,492.78548 C 639.94726,492.43783 639.50586,492.264 638.95898,492.264 C 638.61914,492.264 638.3125,492.34213 638.03906,492.49837 C 637.76562,492.65072 637.55078,492.84994 637.39453,493.09603 L 636.4043,492.96712 L 637.23633,488.55501 L 641.50781,488.55501 L 641.50781,489.56282 L 638.08008,489.56282 L 637.61719,491.87142 C 638.13281,491.51205 638.67383,491.33236 639.24023,491.33235 C 639.99023,491.33236 640.62304,491.59213 641.13867,492.11165 C 641.65429,492.63119 641.9121,493.29916 641.91211,494.11556 C 641.9121,494.8929 641.68554,495.56478 641.23242,496.13118 C 640.68164,496.8265 639.92968,497.17415 638.97656,497.17415 C 638.19531,497.17415 637.55664,496.9554 637.06055,496.5179 C 636.56836,496.0804 636.28711,495.50032 636.2168,494.77767"
         style="font-family:Arial"
         transform="matrix(2.2883105,0,0,2.2883105,-1013.5759,-655.7889)" />
      <path
         id="flowRoot3303"
         d="M 641.68945,490.54134 L 640.64062,490.62337 C 640.54687,490.20931 640.41406,489.90853 640.24219,489.72103 C 639.95703,489.42025 639.60546,489.26986 639.1875,489.26985 C 638.85156,489.26986 638.55664,489.36361 638.30273,489.5511 C 637.9707,489.7933 637.70898,490.14681 637.51758,490.61165 C 637.32617,491.0765 637.22656,491.73861 637.21875,492.59798 C 637.47265,492.21127 637.7832,491.92416 638.15039,491.73665 C 638.51758,491.54916 638.90234,491.45541 639.30469,491.4554 C 640.00781,491.45541 640.60546,491.71517 641.09766,492.2347 C 641.59374,492.75033 641.84179,493.4183 641.8418,494.2386 C 641.84179,494.77767 641.7246,495.27962 641.49023,495.74446 C 641.25976,496.2054 640.9414,496.55892 640.53516,496.80501 C 640.1289,497.0511 639.66796,497.17415 639.15234,497.17415 C 638.27343,497.17415 637.55664,496.85189 637.00195,496.20735 C 636.44726,495.55892 636.16992,494.49251 636.16992,493.00814 C 636.16992,491.34799 636.47656,490.14096 637.08984,489.38704 C 637.625,488.7308 638.3457,488.40268 639.25195,488.40267 C 639.92773,488.40268 640.48046,488.59213 640.91016,488.97103 C 641.34374,489.34994 641.60351,489.87338 641.68945,490.54134 M 637.38281,494.24446 C 637.38281,494.60775 637.45898,494.9554 637.61133,495.28743 C 637.76758,495.61947 637.98437,495.87337 638.26172,496.04915 C 638.53906,496.22103 638.83008,496.30696 639.13477,496.30696 C 639.58007,496.30696 639.96289,496.12728 640.2832,495.7679 C 640.60351,495.40853 640.76367,494.92025 640.76367,494.30306 C 640.76367,493.70931 640.60546,493.24251 640.28906,492.90267 C 639.97265,492.55892 639.57421,492.38705 639.09375,492.38704 C 638.61718,492.38705 638.21289,492.55892 637.88086,492.90267 C 637.54883,493.24251 637.38281,493.68978 637.38281,494.24446"
         style="font-family:Arial"
         transform="matrix(2.2883105,0,0,2.2883105,-1087.1473,-665.22255)" />
      <path
         id="flowRoot3311"
         d="M 636.28711,489.56282 L 636.28711,488.54915 L 641.84766,488.54915 L 641.84766,489.36946 C 641.30078,489.9515 640.75781,490.72494 640.21875,491.68978 C 639.68359,492.65462 639.26953,493.64681 638.97656,494.66634 C 638.76562,495.38509 638.63086,496.1722 638.57227,497.02767 L 637.48828,497.02767 C 637.5,496.35189 637.63281,495.53548 637.88672,494.57845 C 638.14062,493.62142 638.5039,492.69955 638.97656,491.81282 C 639.45312,490.9222 639.95898,490.17221 640.49414,489.56282 L 636.28711,489.56282"
         style="font-family:Arial"
         transform="matrix(2.2883105,0,0,2.2883105,-1158.3631,-660.17178)" />
      <path
         id="flowRoot3319"
         d="M 637.83984,492.36946 C 637.40234,492.20931 637.07812,491.9808 636.86719,491.68392 C 636.65625,491.38705 636.55078,491.03158 636.55078,490.61751 C 636.55078,489.99252 636.77539,489.46713 637.22461,489.04134 C 637.67383,488.61557 638.27148,488.40268 639.01758,488.40267 C 639.76757,488.40268 640.37109,488.62143 640.82812,489.05892 C 641.28515,489.49252 641.51367,490.02181 641.51367,490.64681 C 641.51367,491.04525 641.4082,491.39291 641.19727,491.68978 C 640.99023,491.98275 640.67382,492.20931 640.24805,492.36946 C 640.77539,492.54134 641.17578,492.81869 641.44922,493.2015 C 641.72656,493.58431 641.86523,494.04134 641.86523,494.57259 C 641.86523,495.30697 641.60546,495.92415 641.08594,496.42415 C 640.5664,496.92415 639.88281,497.17415 639.03516,497.17415 C 638.1875,497.17415 637.5039,496.92415 636.98438,496.42415 C 636.46484,495.92025 636.20508,495.29329 636.20508,494.54329 C 636.20508,493.9847 636.3457,493.51791 636.62695,493.1429 C 636.91211,492.764 637.3164,492.50619 637.83984,492.36946 M 637.62891,490.58235 C 637.6289,490.98861 637.75976,491.32064 638.02148,491.57845 C 638.2832,491.83627 638.62304,491.96517 639.04102,491.96517 C 639.44726,491.96517 639.77929,491.83822 640.03711,491.58431 C 640.29882,491.3265 640.42968,491.01205 640.42969,490.64095 C 640.42968,490.25424 640.29492,489.93002 640.02539,489.66829 C 639.75976,489.40267 639.42773,489.26986 639.0293,489.26985 C 638.62695,489.26986 638.29297,489.39877 638.02734,489.65657 C 637.76172,489.91439 637.6289,490.22299 637.62891,490.58235 M 637.28906,494.54915 C 637.28906,494.84994 637.35937,495.14095 637.5,495.4222 C 637.64453,495.70345 637.85742,495.9222 638.13867,496.07845 C 638.41992,496.23079 638.72265,496.30696 639.04688,496.30696 C 639.55078,496.30696 639.96679,496.14486 640.29492,495.82064 C 640.62304,495.49642 640.7871,495.08431 640.78711,494.58431 C 640.7871,494.0765 640.61718,493.65658 640.27734,493.32454 C 639.9414,492.99251 639.51953,492.8265 639.01172,492.8265 C 638.51562,492.8265 638.10351,492.99056 637.77539,493.31868 C 637.45117,493.64681 637.28906,494.05697 637.28906,494.54915"
         style="font-family:Arial"
         transform="matrix(2.2883105,0,0,2.2883105,-1230.0839,-632.89766)" />
      <path
         id="flowRoot3327"
         d="M 636.375,495.04134 L 637.38867,494.94759 C 637.47461,495.42415 637.63867,495.76986 637.88086,495.9847 C 638.12304,496.19954 638.43359,496.30696 638.8125,496.30696 C 639.13672,496.30696 639.41992,496.23275 639.66211,496.08431 C 639.9082,495.93587 640.10937,495.73861 640.26562,495.49251 C 640.42187,495.24251 640.55273,494.90658 640.6582,494.4847 C 640.76367,494.06283 640.8164,493.63314 640.81641,493.19564 C 640.8164,493.14876 640.81445,493.07845 640.81055,492.9847 C 640.5996,493.32064 640.31054,493.59408 639.94336,493.80501 C 639.58007,494.01205 639.18554,494.11556 638.75977,494.11556 C 638.04883,494.11556 637.44726,493.85775 636.95508,493.34212 C 636.46289,492.8265 636.2168,492.14681 636.2168,491.30306 C 636.2168,490.43197 636.47266,489.7308 636.98438,489.19954 C 637.5,488.6683 638.14453,488.40268 638.91797,488.40267 C 639.47656,488.40268 639.98632,488.55307 640.44727,488.85384 C 640.9121,489.15463 641.26367,489.58432 641.50195,490.1429 C 641.74413,490.6976 641.86523,491.50228 641.86523,492.55696 C 641.86523,493.65462 641.74609,494.52962 641.50781,495.18196 C 641.26953,495.8304 640.91406,496.32454 640.44141,496.66439 C 639.97265,497.00423 639.42187,497.17415 638.78906,497.17415 C 638.11719,497.17415 637.56836,496.9886 637.14258,496.61751 C 636.7168,496.24251 636.46094,495.71712 636.375,495.04134 M 640.69336,491.25032 C 640.69335,490.64486 640.53125,490.16439 640.20703,489.80892 C 639.88671,489.45346 639.5,489.27572 639.04688,489.27571 C 638.57812,489.27572 638.16992,489.46713 637.82227,489.84993 C 637.47461,490.23275 637.30078,490.72885 637.30078,491.33821 C 637.30078,491.88509 637.46484,492.33041 637.79297,492.67415 C 638.125,493.014 638.5332,493.18392 639.01758,493.18392 C 639.50586,493.18392 639.90625,493.014 640.21875,492.67415 C 640.53515,492.33041 640.69335,491.8558 640.69336,491.25032"
         style="font-family:Arial"
         transform="matrix(2.2883105,0,0,2.2883105,-1285.6423,-584.41034)" />
      <path
         id="flowRoot3335"
         d="M 640.18945,497.02767 L 639.13477,497.02767 L 639.13477,490.30696 C 638.88086,490.54916 638.54687,490.79135 638.13281,491.03353 C 637.72265,491.27572 637.35351,491.45736 637.02539,491.57845 L 637.02539,490.55892 C 637.61523,490.28158 638.13086,489.94564 638.57227,489.5511 C 639.01367,489.15658 639.32617,488.77377 639.50977,488.40267 L 640.18945,488.40267 L 640.18945,497.02767 M 642.89648,492.79134 C 642.89648,491.77572 643,490.95931 643.20703,490.34212 C 643.41797,489.72103 643.72851,489.24252 644.13867,488.90657 C 644.55273,488.57064 645.07226,488.40268 645.69727,488.40267 C 646.1582,488.40268 646.5625,488.49643 646.91016,488.68392 C 647.25781,488.86752 647.54492,489.1351 647.77148,489.48665 C 647.99804,489.83432 648.17578,490.2601 648.30469,490.764 C 648.43359,491.264 648.49804,491.93978 648.49805,492.79134 C 648.49804,493.79915 648.39453,494.61361 648.1875,495.2347 C 647.98046,495.85189 647.66992,496.3304 647.25586,496.67025 C 646.8457,497.00618 646.32617,497.17415 645.69727,497.17415 C 644.86914,497.17415 644.21875,496.87728 643.74609,496.28353 C 643.17969,495.56868 642.89648,494.40462 642.89648,492.79134 M 643.98047,492.79134 C 643.98047,494.2015 644.14453,495.14095 644.47266,495.6097 C 644.80469,496.07454 645.21289,496.30696 645.69727,496.30696 C 646.18164,496.30696 646.58789,496.07259 646.91602,495.60384 C 647.24804,495.13509 647.41406,494.19759 647.41406,492.79134 C 647.41406,491.37728 647.24804,490.43783 646.91602,489.97298 C 646.58789,489.50814 646.17773,489.27572 645.68555,489.27571 C 645.20117,489.27572 644.81445,489.4808 644.52539,489.89095 C 644.16211,490.41439 643.98047,491.38119 643.98047,492.79134"
         style="font-family:Arial"
         transform="matrix(2.2883105,0,0,2.2883105,-1349.787,-523.80119)" />
      <path
         id="flowRoot3343"
         d="M 640.18945,497.02767 L 639.13477,497.02767 L 639.13477,490.30696 C 638.88086,490.54916 638.54687,490.79135 638.13281,491.03353 C 637.72265,491.27572 637.35351,491.45736 637.02539,491.57845 L 637.02539,490.55892 C 637.61523,490.28158 638.13086,489.94564 638.57227,489.5511 C 639.01367,489.15658 639.32617,488.77377 639.50977,488.40267 L 640.18945,488.40267 L 640.18945,497.02767 M 645.97852,497.02767 L 644.92383,497.02767 L 644.92383,490.30696 C 644.66992,490.54916 644.33593,490.79135 643.92188,491.03353 C 643.51172,491.27572 643.14258,491.45736 642.81445,491.57845 L 642.81445,490.55892 C 643.40429,490.28158 643.91992,489.94564 644.36133,489.5511 C 644.80273,489.15658 645.11523,488.77377 645.29883,488.40267 L 645.97852,488.40267 L 645.97852,497.02767"
         style="font-family:Arial"
         transform="matrix(2.2883105,0,0,2.2883105,-1369.485,-454.10066)" />
      <path
         id="flowRoot3351"
         d="M 640.18945,497.02767 L 639.13477,497.02767 L 639.13477,490.30696 C 638.88086,490.54916 638.54687,490.79135 638.13281,491.03353 C 637.72265,491.27572 637.35351,491.45736 637.02539,491.57845 L 637.02539,490.55892 C 637.61523,490.28158 638.13086,489.94564 638.57227,489.5511 C 639.01367,489.15658 639.32617,488.77377 639.50977,488.40267 L 640.18945,488.40267 L 640.18945,497.02767 M 648.43945,496.014 L 648.43945,497.02767 L 642.76172,497.02767 C 642.75391,496.77376 642.79492,496.52962 642.88477,496.29525 C 643.0293,495.90853 643.25976,495.52767 643.57617,495.15267 C 643.89648,494.77767 644.35742,494.34408 644.95898,493.85189 C 645.89257,493.08626 646.52343,492.4808 646.85156,492.03548 C 647.17968,491.58627 647.34375,491.16244 647.34375,490.764 C 647.34375,490.34603 647.19335,489.99447 646.89258,489.70931 C 646.5957,489.42025 646.20703,489.27572 645.72656,489.27571 C 645.21875,489.27572 644.8125,489.42807 644.50781,489.73275 C 644.20312,490.03744 644.04883,490.45931 644.04492,490.99837 L 642.96094,490.88704 C 643.03516,490.07846 643.31445,489.46322 643.79883,489.04134 C 644.2832,488.61557 644.93359,488.40268 645.75,488.40267 C 646.57421,488.40268 647.22656,488.63119 647.70703,489.08821 C 648.18749,489.54525 648.42773,490.11166 648.42773,490.78743 C 648.42773,491.13119 648.35742,491.46908 648.2168,491.8011 C 648.07617,492.13314 647.84179,492.48275 647.51367,492.84993 C 647.18945,493.21712 646.64843,493.72103 645.89062,494.36165 C 645.25781,494.8929 644.85156,495.25423 644.67188,495.44564 C 644.49219,495.63314 644.34375,495.82259 644.22656,496.014 L 648.43945,496.014"
         style="font-family:Arial"
         transform="matrix(2.2883105,0,0,2.2883105,-1386.6576,-382.37983)" />
      <path
         id="flowRoot3359"
         d="M 640.18945,497.02767 L 639.13477,497.02767 L 639.13477,490.30696 C 638.88086,490.54916 638.54687,490.79135 638.13281,491.03353 C 637.72265,491.27572 637.35351,491.45736 637.02539,491.57845 L 637.02539,490.55892 C 637.61523,490.28158 638.13086,489.94564 638.57227,489.5511 C 639.01367,489.15658 639.32617,488.77377 639.50977,488.40267 L 640.18945,488.40267 L 640.18945,497.02767 M 642.90234,494.76009 L 643.95703,494.61946 C 644.07812,495.21712 644.2832,495.64876 644.57227,495.91439 C 644.86523,496.17611 645.2207,496.30696 645.63867,496.30696 C 646.13476,496.30696 646.55273,496.13509 646.89258,495.79134 C 647.23632,495.44759 647.4082,495.02181 647.4082,494.514 C 647.4082,494.02962 647.25,493.63119 646.93359,493.31868 C 646.61718,493.00228 646.21484,492.84408 645.72656,492.84407 C 645.52734,492.84408 645.27929,492.88314 644.98242,492.96126 L 645.09961,492.03548 C 645.16992,492.0433 645.22656,492.0472 645.26953,492.0472 C 645.71875,492.0472 646.12304,491.93002 646.48242,491.69564 C 646.84179,491.46127 647.02148,491.09994 647.02148,490.61165 C 647.02148,490.22494 646.89062,489.90463 646.62891,489.65071 C 646.36718,489.39682 646.02929,489.26986 645.61523,489.26985 C 645.20508,489.26986 644.86328,489.39877 644.58984,489.65657 C 644.3164,489.91439 644.14062,490.30111 644.0625,490.81673 L 643.00781,490.62923 C 643.13672,489.92221 643.42969,489.37533 643.88672,488.9886 C 644.34375,488.59799 644.91211,488.40268 645.5918,488.40267 C 646.06054,488.40268 646.49218,488.50424 646.88672,488.70735 C 647.28125,488.90658 647.58203,489.18002 647.78906,489.52767 C 647.99999,489.87533 648.10546,490.24447 648.10547,490.63509 C 648.10546,491.00619 648.00585,491.34408 647.80664,491.64876 C 647.60742,491.95345 647.3125,492.19564 646.92188,492.37532 C 647.42968,492.49252 647.82421,492.73666 648.10547,493.10775 C 648.38671,493.47494 648.52734,493.93587 648.52734,494.49056 C 648.52734,495.24056 648.2539,495.87728 647.70703,496.40071 C 647.16015,496.92025 646.46875,497.18001 645.63281,497.18001 C 644.8789,497.18001 644.25195,496.9554 643.75195,496.50618 C 643.25586,496.05697 642.97266,495.47493 642.90234,494.76009"
         style="font-family:Arial"
         transform="matrix(2.2883105,0,0,2.2883105,-1376.556,-311.16408)" />
      <path
         id="flowRoot3367"
         d="M 640.18945,497.02767 L 639.13477,497.02767 L 639.13477,490.30696 C 638.88086,490.54916 638.54687,490.79135 638.13281,491.03353 C 637.72265,491.27572 637.35351,491.45736 637.02539,491.57845 L 637.02539,490.55892 C 637.61523,490.28158 638.13086,489.94564 638.57227,489.5511 C 639.01367,489.15658 639.32617,488.77377 639.50977,488.40267 L 640.18945,488.40267 L 640.18945,497.02767 M 646.27734,497.02767 L 646.27734,494.97103 L 642.55078,494.97103 L 642.55078,494.00423 L 646.4707,488.43782 L 647.33203,488.43782 L 647.33203,494.00423 L 648.49219,494.00423 L 648.49219,494.97103 L 647.33203,494.97103 L 647.33203,497.02767 L 646.27734,497.02767 M 646.27734,494.00423 L 646.27734,490.13118 L 643.58789,494.00423 L 646.27734,494.00423"
         style="font-family:Arial"
         transform="matrix(2.2883105,0,0,2.2883105,-1348.7768,-240.4534)" />
      <path
         id="flowRoot3375"
         d="M 640.18945,497.02767 L 639.13477,497.02767 L 639.13477,490.30696 C 638.88086,490.54916 638.54687,490.79135 638.13281,491.03353 C 637.72265,491.27572 637.35351,491.45736 637.02539,491.57845 L 637.02539,490.55892 C 637.61523,490.28158 638.13086,489.94564 638.57227,489.5511 C 639.01367,489.15658 639.32617,488.77377 639.50977,488.40267 L 640.18945,488.40267 L 640.18945,497.02767 M 642.89648,494.77767 L 644.00391,494.68392 C 644.08594,495.22298 644.27539,495.62923 644.57227,495.90267 C 644.87304,496.1722 645.23437,496.30696 645.65625,496.30696 C 646.16406,496.30696 646.59375,496.11556 646.94531,495.73275 C 647.29687,495.34993 647.47265,494.84212 647.47266,494.20931 C 647.47265,493.60775 647.30273,493.13314 646.96289,492.78548 C 646.62695,492.43783 646.18554,492.264 645.63867,492.264 C 645.29883,492.264 644.99218,492.34213 644.71875,492.49837 C 644.44531,492.65072 644.23047,492.84994 644.07422,493.09603 L 643.08398,492.96712 L 643.91602,488.55501 L 648.1875,488.55501 L 648.1875,489.56282 L 644.75977,489.56282 L 644.29688,491.87142 C 644.8125,491.51205 645.35351,491.33236 645.91992,491.33235 C 646.66992,491.33236 647.30273,491.59213 647.81836,492.11165 C 648.33398,492.63119 648.59179,493.29916 648.5918,494.11556 C 648.59179,494.8929 648.36523,495.56478 647.91211,496.13118 C 647.36132,496.8265 646.60937,497.17415 645.65625,497.17415 C 644.875,497.17415 644.23633,496.9554 643.74023,496.5179 C 643.24805,496.0804 642.9668,495.50032 642.89648,494.77767"
         style="font-family:Arial"
         transform="matrix(2.2883105,0,0,2.2883105,-1309.3809,-182.8747)" />
      <path
         id="flowRoot3383"
         d="M 640.18945,497.02767 L 639.13477,497.02767 L 639.13477,490.30696 C 638.88086,490.54916 638.54687,490.79135 638.13281,491.03353 C 637.72265,491.27572 637.35351,491.45736 637.02539,491.57845 L 637.02539,490.55892 C 637.61523,490.28158 638.13086,489.94564 638.57227,489.5511 C 639.01367,489.15658 639.32617,488.77377 639.50977,488.40267 L 640.18945,488.40267 L 640.18945,497.02767 M 648.36914,490.54134 L 647.32031,490.62337 C 647.22656,490.20931 647.09375,489.90853 646.92188,489.72103 C 646.63671,489.42025 646.28515,489.26986 645.86719,489.26985 C 645.53125,489.26986 645.23633,489.36361 644.98242,489.5511 C 644.65039,489.7933 644.38867,490.14681 644.19727,490.61165 C 644.00586,491.0765 643.90625,491.73861 643.89844,492.59798 C 644.15234,492.21127 644.46289,491.92416 644.83008,491.73665 C 645.19726,491.54916 645.58203,491.45541 645.98438,491.4554 C 646.6875,491.45541 647.28515,491.71517 647.77734,492.2347 C 648.27343,492.75033 648.52148,493.4183 648.52148,494.2386 C 648.52148,494.77767 648.40429,495.27962 648.16992,495.74446 C 647.93945,496.2054 647.62109,496.55892 647.21484,496.80501 C 646.80859,497.0511 646.34765,497.17415 645.83203,497.17415 C 644.95312,497.17415 644.23633,496.85189 643.68164,496.20735 C 643.12695,495.55892 642.84961,494.49251 642.84961,493.00814 C 642.84961,491.34799 643.15625,490.14096 643.76953,489.38704 C 644.30469,488.7308 645.02539,488.40268 645.93164,488.40267 C 646.60742,488.40268 647.16015,488.59213 647.58984,488.97103 C 648.02343,489.34994 648.2832,489.87338 648.36914,490.54134 M 644.0625,494.24446 C 644.0625,494.60775 644.13867,494.9554 644.29102,495.28743 C 644.44726,495.61947 644.66406,495.87337 644.94141,496.04915 C 645.21875,496.22103 645.50976,496.30696 645.81445,496.30696 C 646.25976,496.30696 646.64257,496.12728 646.96289,495.7679 C 647.2832,495.40853 647.44335,494.92025 647.44336,494.30306 C 647.44335,493.70931 647.28515,493.24251 646.96875,492.90267 C 646.65234,492.55892 646.2539,492.38705 645.77344,492.38704 C 645.29687,492.38705 644.89258,492.55892 644.56055,492.90267 C 644.22851,493.24251 644.0625,493.68978 644.0625,494.24446"
         style="font-family:Arial"
         transform="matrix(2.2883105,0,0,2.2883105,-1244.7311,-135.90261)" />
      <path
         id="flowRoot3391"
         d="M 640.18945,497.02767 L 639.13477,497.02767 L 639.13477,490.30696 C 638.88086,490.54916 638.54687,490.79135 638.13281,491.03353 C 637.72265,491.27572 637.35351,491.45736 637.02539,491.57845 L 637.02539,490.55892 C 637.61523,490.28158 638.13086,489.94564 638.57227,489.5511 C 639.01367,489.15658 639.32617,488.77377 639.50977,488.40267 L 640.18945,488.40267 L 640.18945,497.02767 M 642.9668,489.56282 L 642.9668,488.54915 L 648.52734,488.54915 L 648.52734,489.36946 C 647.98046,489.9515 647.43749,490.72494 646.89844,491.68978 C 646.36328,492.65462 645.94922,493.64681 645.65625,494.66634 C 645.44531,495.38509 645.31054,496.1722 645.25195,497.02767 L 644.16797,497.02767 C 644.17969,496.35189 644.3125,495.53548 644.56641,494.57845 C 644.82031,493.62142 645.18359,492.69955 645.65625,491.81282 C 646.13281,490.9222 646.63867,490.17221 647.17383,489.56282 L 642.9668,489.56282"
         style="font-family:Arial"
         transform="matrix(2.2883105,0,0,2.2883105,-1182.6067,-108.62849)" />
      <path
         id="flowRoot3399"
         d="M 640.18945,497.02767 L 639.13477,497.02767 L 639.13477,490.30696 C 638.88086,490.54916 638.54687,490.79135 638.13281,491.03353 C 637.72265,491.27572 637.35351,491.45736 637.02539,491.57845 L 637.02539,490.55892 C 637.61523,490.28158 638.13086,489.94564 638.57227,489.5511 C 639.01367,489.15658 639.32617,488.77377 639.50977,488.40267 L 640.18945,488.40267 L 640.18945,497.02767 M 644.51953,492.36946 C 644.08203,492.20931 643.75781,491.9808 643.54688,491.68392 C 643.33594,491.38705 643.23047,491.03158 643.23047,490.61751 C 643.23047,489.99252 643.45508,489.46713 643.9043,489.04134 C 644.35351,488.61557 644.95117,488.40268 645.69727,488.40267 C 646.44726,488.40268 647.05078,488.62143 647.50781,489.05892 C 647.96484,489.49252 648.19335,490.02181 648.19336,490.64681 C 648.19335,491.04525 648.08788,491.39291 647.87695,491.68978 C 647.66992,491.98275 647.35351,492.20931 646.92773,492.36946 C 647.45507,492.54134 647.85546,492.81869 648.12891,493.2015 C 648.40624,493.58431 648.54492,494.04134 648.54492,494.57259 C 648.54492,495.30697 648.28515,495.92415 647.76562,496.42415 C 647.24609,496.92415 646.5625,497.17415 645.71484,497.17415 C 644.86719,497.17415 644.18359,496.92415 643.66406,496.42415 C 643.14453,495.92025 642.88477,495.29329 642.88477,494.54329 C 642.88477,493.9847 643.02539,493.51791 643.30664,493.1429 C 643.5918,492.764 643.99609,492.50619 644.51953,492.36946 M 644.30859,490.58235 C 644.30859,490.98861 644.43945,491.32064 644.70117,491.57845 C 644.96289,491.83627 645.30273,491.96517 645.7207,491.96517 C 646.12695,491.96517 646.45898,491.83822 646.7168,491.58431 C 646.97851,491.3265 647.10937,491.01205 647.10938,490.64095 C 647.10937,490.25424 646.9746,489.93002 646.70508,489.66829 C 646.43945,489.40267 646.10742,489.26986 645.70898,489.26985 C 645.30664,489.26986 644.97265,489.39877 644.70703,489.65657 C 644.4414,489.91439 644.30859,490.22299 644.30859,490.58235 M 643.96875,494.54915 C 643.96875,494.84994 644.03906,495.14095 644.17969,495.4222 C 644.32422,495.70345 644.53711,495.9222 644.81836,496.07845 C 645.09961,496.23079 645.40234,496.30696 645.72656,496.30696 C 646.23046,496.30696 646.64648,496.14486 646.97461,495.82064 C 647.30273,495.49642 647.46679,495.08431 647.4668,494.58431 C 647.46679,494.0765 647.29687,493.65658 646.95703,493.32454 C 646.62109,492.99251 646.19921,492.8265 645.69141,492.8265 C 645.19531,492.8265 644.7832,492.99056 644.45508,493.31868 C 644.13086,493.64681 643.96875,494.05697 643.96875,494.54915"
         style="font-family:Arial"
         transform="matrix(2.2883105,0,0,2.2883105,-1099.2691,-98.526965)" />
      <path
         id="flowRoot3407"
         d="M 640.18945,497.02767 L 639.13477,497.02767 L 639.13477,490.30696 C 638.88086,490.54916 638.54687,490.79135 638.13281,491.03353 C 637.72265,491.27572 637.35351,491.45736 637.02539,491.57845 L 637.02539,490.55892 C 637.61523,490.28158 638.13086,489.94564 638.57227,489.5511 C 639.01367,489.15658 639.32617,488.77377 639.50977,488.40267 L 640.18945,488.40267 L 640.18945,497.02767 M 643.05469,495.04134 L 644.06836,494.94759 C 644.1543,495.42415 644.31836,495.76986 644.56055,495.9847 C 644.80273,496.19954 645.11328,496.30696 645.49219,496.30696 C 645.8164,496.30696 646.09961,496.23275 646.3418,496.08431 C 646.58789,495.93587 646.78906,495.73861 646.94531,495.49251 C 647.10156,495.24251 647.23242,494.90658 647.33789,494.4847 C 647.44335,494.06283 647.49609,493.63314 647.49609,493.19564 C 647.49609,493.14876 647.49414,493.07845 647.49023,492.9847 C 647.27929,493.32064 646.99023,493.59408 646.62305,493.80501 C 646.25976,494.01205 645.86523,494.11556 645.43945,494.11556 C 644.72851,494.11556 644.12695,493.85775 643.63477,493.34212 C 643.14258,492.8265 642.89648,492.14681 642.89648,491.30306 C 642.89648,490.43197 643.15234,489.7308 643.66406,489.19954 C 644.17969,488.6683 644.82422,488.40268 645.59766,488.40267 C 646.15625,488.40268 646.66601,488.55307 647.12695,488.85384 C 647.59179,489.15463 647.94335,489.58432 648.18164,490.1429 C 648.42382,490.6976 648.54492,491.50228 648.54492,492.55696 C 648.54492,493.65462 648.42578,494.52962 648.1875,495.18196 C 647.94921,495.8304 647.59374,496.32454 647.12109,496.66439 C 646.65234,497.00423 646.10156,497.17415 645.46875,497.17415 C 644.79687,497.17415 644.24805,496.9886 643.82227,496.61751 C 643.39648,496.24251 643.14062,495.71712 643.05469,495.04134 M 647.37305,491.25032 C 647.37304,490.64486 647.21093,490.16439 646.88672,489.80892 C 646.5664,489.45346 646.17968,489.27572 645.72656,489.27571 C 645.25781,489.27572 644.84961,489.46713 644.50195,489.84993 C 644.1543,490.23275 643.98047,490.72885 643.98047,491.33821 C 643.98047,491.88509 644.14453,492.33041 644.47266,492.67415 C 644.80469,493.014 645.21289,493.18392 645.69727,493.18392 C 646.18554,493.18392 646.58593,493.014 646.89844,492.67415 C 647.21484,492.33041 647.37304,491.8558 647.37305,491.25032"
         style="font-family:Arial"
         transform="matrix(2.2883105,0,0,2.2883105,-1030.5787,-104.25612)" />
      <path
         id="flowRoot3415"
         d="M 641.75977,496.014 L 641.75977,497.02767 L 636.08203,497.02767 C 636.07422,496.77376 636.11523,496.52962 636.20508,496.29525 C 636.34961,495.90853 636.58008,495.52767 636.89648,495.15267 C 637.2168,494.77767 637.67773,494.34408 638.2793,493.85189 C 639.21289,493.08626 639.84375,492.4808 640.17188,492.03548 C 640.5,491.58627 640.66406,491.16244 640.66406,490.764 C 640.66406,490.34603 640.51367,489.99447 640.21289,489.70931 C 639.91601,489.42025 639.52734,489.27572 639.04688,489.27571 C 638.53906,489.27572 638.13281,489.42807 637.82812,489.73275 C 637.52344,490.03744 637.36914,490.45931 637.36523,490.99837 L 636.28125,490.88704 C 636.35547,490.07846 636.63476,489.46322 637.11914,489.04134 C 637.60351,488.61557 638.2539,488.40268 639.07031,488.40267 C 639.89453,488.40268 640.54687,488.63119 641.02734,489.08821 C 641.50781,489.54525 641.74804,490.11166 641.74805,490.78743 C 641.74804,491.13119 641.67773,491.46908 641.53711,491.8011 C 641.39648,492.13314 641.1621,492.48275 640.83398,492.84993 C 640.50976,493.21712 639.96875,493.72103 639.21094,494.36165 C 638.57812,494.8929 638.17187,495.25423 637.99219,495.44564 C 637.8125,495.63314 637.66406,495.82259 637.54688,496.014 L 641.75977,496.014 M 642.89648,492.79134 C 642.89648,491.77572 643,490.95931 643.20703,490.34212 C 643.41797,489.72103 643.72851,489.24252 644.13867,488.90657 C 644.55273,488.57064 645.07226,488.40268 645.69727,488.40267 C 646.1582,488.40268 646.5625,488.49643 646.91016,488.68392 C 647.25781,488.86752 647.54492,489.1351 647.77148,489.48665 C 647.99804,489.83432 648.17578,490.2601 648.30469,490.764 C 648.43359,491.264 648.49804,491.93978 648.49805,492.79134 C 648.49804,493.79915 648.39453,494.61361 648.1875,495.2347 C 647.98046,495.85189 647.66992,496.3304 647.25586,496.67025 C 646.8457,497.00618 646.32617,497.17415 645.69727,497.17415 C 644.86914,497.17415 644.21875,496.87728 643.74609,496.28353 C 643.17969,495.56868 642.89648,494.40462 642.89648,492.79134 M 643.98047,492.79134 C 643.98047,494.2015 644.14453,495.14095 644.47266,495.6097 C 644.80469,496.07454 645.21289,496.30696 645.69727,496.30696 C 646.18164,496.30696 646.58789,496.07259 646.91602,495.60384 C 647.24804,495.13509 647.41406,494.19759 647.41406,492.79134 C 647.41406,491.37728 647.24804,490.43783 646.91602,489.97298 C 646.58789,489.50814 646.17773,489.27572 645.68555,489.27571 C 645.20117,489.27572 644.81445,489.4808 644.52539,489.89095 C 644.16211,490.41439 643.98047,491.38119 643.98047,492.79134"
         style="font-family:Arial"
         transform="matrix(2.2883105,0,0,2.2883105,-951.5417,-134.8058)" />
      <path
         id="flowRoot3423"
         d="M 641.75977,496.014 L 641.75977,497.02767 L 636.08203,497.02767 C 636.07422,496.77376 636.11523,496.52962 636.20508,496.29525 C 636.34961,495.90853 636.58008,495.52767 636.89648,495.15267 C 637.2168,494.77767 637.67773,494.34408 638.2793,493.85189 C 639.21289,493.08626 639.84375,492.4808 640.17188,492.03548 C 640.5,491.58627 640.66406,491.16244 640.66406,490.764 C 640.66406,490.34603 640.51367,489.99447 640.21289,489.70931 C 639.91601,489.42025 639.52734,489.27572 639.04688,489.27571 C 638.53906,489.27572 638.13281,489.42807 637.82812,489.73275 C 637.52344,490.03744 637.36914,490.45931 637.36523,490.99837 L 636.28125,490.88704 C 636.35547,490.07846 636.63476,489.46322 637.11914,489.04134 C 637.60351,488.61557 638.2539,488.40268 639.07031,488.40267 C 639.89453,488.40268 640.54687,488.63119 641.02734,489.08821 C 641.50781,489.54525 641.74804,490.11166 641.74805,490.78743 C 641.74804,491.13119 641.67773,491.46908 641.53711,491.8011 C 641.39648,492.13314 641.1621,492.48275 640.83398,492.84993 C 640.50976,493.21712 639.96875,493.72103 639.21094,494.36165 C 638.57812,494.8929 638.17187,495.25423 637.99219,495.44564 C 637.8125,495.63314 637.66406,495.82259 637.54688,496.014 L 641.75977,496.014 M 646.86914,497.02767 L 645.81445,497.02767 L 645.81445,490.30696 C 645.56054,490.54916 645.22656,490.79135 644.8125,491.03353 C 644.40234,491.27572 644.0332,491.45736 643.70508,491.57845 L 643.70508,490.55892 C 644.29492,490.28158 644.81054,489.94564 645.25195,489.5511 C 645.69336,489.15658 646.00586,488.77377 646.18945,488.40267 L 646.86914,488.40267 L 646.86914,497.02767"
         style="font-family:Arial"
         transform="matrix(2.2883105,0,0,2.2883105,-894.2081,-179.84425)" />
      <path
         id="flowRoot3431"
         d="M 641.75977,496.014 L 641.75977,497.02767 L 636.08203,497.02767 C 636.07422,496.77376 636.11523,496.52962 636.20508,496.29525 C 636.34961,495.90853 636.58008,495.52767 636.89648,495.15267 C 637.2168,494.77767 637.67773,494.34408 638.2793,493.85189 C 639.21289,493.08626 639.84375,492.4808 640.17188,492.03548 C 640.5,491.58627 640.66406,491.16244 640.66406,490.764 C 640.66406,490.34603 640.51367,489.99447 640.21289,489.70931 C 639.91601,489.42025 639.52734,489.27572 639.04688,489.27571 C 638.53906,489.27572 638.13281,489.42807 637.82812,489.73275 C 637.52344,490.03744 637.36914,490.45931 637.36523,490.99837 L 636.28125,490.88704 C 636.35547,490.07846 636.63476,489.46322 637.11914,489.04134 C 637.60351,488.61557 638.2539,488.40268 639.07031,488.40267 C 639.89453,488.40268 640.54687,488.63119 641.02734,489.08821 C 641.50781,489.54525 641.74804,490.11166 641.74805,490.78743 C 641.74804,491.13119 641.67773,491.46908 641.53711,491.8011 C 641.39648,492.13314 641.1621,492.48275 640.83398,492.84993 C 640.50976,493.21712 639.96875,493.72103 639.21094,494.36165 C 638.57812,494.8929 638.17187,495.25423 637.99219,495.44564 C 637.8125,495.63314 637.66406,495.82259 637.54688,496.014 L 641.75977,496.014 M 648.43945,496.014 L 648.43945,497.02767 L 642.76172,497.02767 C 642.75391,496.77376 642.79492,496.52962 642.88477,496.29525 C 643.0293,495.90853 643.25976,495.52767 643.57617,495.15267 C 643.89648,494.77767 644.35742,494.34408 644.95898,493.85189 C 645.89257,493.08626 646.52343,492.4808 646.85156,492.03548 C 647.17968,491.58627 647.34375,491.16244 647.34375,490.764 C 647.34375,490.34603 647.19335,489.99447 646.89258,489.70931 C 646.5957,489.42025 646.20703,489.27572 645.72656,489.27571 C 645.21875,489.27572 644.8125,489.42807 644.50781,489.73275 C 644.20312,490.03744 644.04883,490.45931 644.04492,490.99837 L 642.96094,490.88704 C 643.03516,490.07846 643.31445,489.46322 643.79883,489.04134 C 644.2832,488.61557 644.93359,488.40268 645.75,488.40267 C 646.57421,488.40268 647.22656,488.63119 647.70703,489.08821 C 648.18749,489.54525 648.42773,490.11166 648.42773,490.78743 C 648.42773,491.13119 648.35742,491.46908 648.2168,491.8011 C 648.07617,492.13314 647.84179,492.48275 647.51367,492.84993 C 647.18945,493.21712 646.64843,493.72103 645.89062,494.36165 C 645.25781,494.8929 644.85156,495.25423 644.67188,495.44564 C 644.49219,495.63314 644.34375,495.82259 644.22656,496.014 L 648.43945,496.014"
         style="font-family:Arial"
         transform="matrix(2.2883105,0,0,2.2883105,-851.78169,-238.4331)" />
      <path
         id="flowRoot3439"
         d="M 641.75977,496.014 L 641.75977,497.02767 L 636.08203,497.02767 C 636.07422,496.77376 636.11523,496.52962 636.20508,496.29525 C 636.34961,495.90853 636.58008,495.52767 636.89648,495.15267 C 637.2168,494.77767 637.67773,494.34408 638.2793,493.85189 C 639.21289,493.08626 639.84375,492.4808 640.17188,492.03548 C 640.5,491.58627 640.66406,491.16244 640.66406,490.764 C 640.66406,490.34603 640.51367,489.99447 640.21289,489.70931 C 639.91601,489.42025 639.52734,489.27572 639.04688,489.27571 C 638.53906,489.27572 638.13281,489.42807 637.82812,489.73275 C 637.52344,490.03744 637.36914,490.45931 637.36523,490.99837 L 636.28125,490.88704 C 636.35547,490.07846 636.63476,489.46322 637.11914,489.04134 C 637.60351,488.61557 638.2539,488.40268 639.07031,488.40267 C 639.89453,488.40268 640.54687,488.63119 641.02734,489.08821 C 641.50781,489.54525 641.74804,490.11166 641.74805,490.78743 C 641.74804,491.13119 641.67773,491.46908 641.53711,491.8011 C 641.39648,492.13314 641.1621,492.48275 640.83398,492.84993 C 640.50976,493.21712 639.96875,493.72103 639.21094,494.36165 C 638.57812,494.8929 638.17187,495.25423 637.99219,495.44564 C 637.8125,495.63314 637.66406,495.82259 637.54688,496.014 L 641.75977,496.014 M 642.90234,494.76009 L 643.95703,494.61946 C 644.07812,495.21712 644.2832,495.64876 644.57227,495.91439 C 644.86523,496.17611 645.2207,496.30696 645.63867,496.30696 C 646.13476,496.30696 646.55273,496.13509 646.89258,495.79134 C 647.23632,495.44759 647.4082,495.02181 647.4082,494.514 C 647.4082,494.02962 647.25,493.63119 646.93359,493.31868 C 646.61718,493.00228 646.21484,492.84408 645.72656,492.84407 C 645.52734,492.84408 645.27929,492.88314 644.98242,492.96126 L 645.09961,492.03548 C 645.16992,492.0433 645.22656,492.0472 645.26953,492.0472 C 645.71875,492.0472 646.12304,491.93002 646.48242,491.69564 C 646.84179,491.46127 647.02148,491.09994 647.02148,490.61165 C 647.02148,490.22494 646.89062,489.90463 646.62891,489.65071 C 646.36718,489.39682 646.02929,489.26986 645.61523,489.26985 C 645.20508,489.26986 644.86328,489.39877 644.58984,489.65657 C 644.3164,489.91439 644.14062,490.30111 644.0625,490.81673 L 643.00781,490.62923 C 643.13672,489.92221 643.42969,489.37533 643.88672,488.9886 C 644.34375,488.59799 644.91211,488.40268 645.5918,488.40267 C 646.06054,488.40268 646.49218,488.50424 646.88672,488.70735 C 647.28125,488.90658 647.58203,489.18002 647.78906,489.52767 C 647.99999,489.87533 648.10546,490.24447 648.10547,490.63509 C 648.10546,491.00619 648.00585,491.34408 647.80664,491.64876 C 647.60742,491.95345 647.3125,492.19564 646.92188,492.37532 C 647.42968,492.49252 647.82421,492.73666 648.10547,493.10775 C 648.38671,493.47494 648.52734,493.93587 648.52734,494.49056 C 648.52734,495.24056 648.2539,495.87728 647.70703,496.40071 C 647.16015,496.92025 646.46875,497.18001 645.63281,497.18001 C 644.8789,497.18001 644.25195,496.9554 643.75195,496.50618 C 643.25586,496.05697 642.97266,495.47493 642.90234,494.76009"
         style="font-family:Arial"
         transform="matrix(2.2883105,0,0,2.2883105,-817.4365,-306.11332)" />
      <path
         id="flowRoot3447"
         d="M 636.2168,492.79134 C 636.2168,491.77572 636.32031,490.95931 636.52734,490.34212 C 636.73828,489.72103 637.04883,489.24252 637.45898,488.90657 C 637.87304,488.57064 638.39258,488.40268 639.01758,488.40267 C 639.47851,488.40268 639.88281,488.49643 640.23047,488.68392 C 640.57812,488.86752 640.86523,489.1351 641.0918,489.48665 C 641.31835,489.83432 641.49609,490.2601 641.625,490.764 C 641.7539,491.264 641.81835,491.93978 641.81836,492.79134 C 641.81835,493.79915 641.71484,494.61361 641.50781,495.2347 C 641.30078,495.85189 640.99023,496.3304 640.57617,496.67025 C 640.16601,497.00618 639.64648,497.17415 639.01758,497.17415 C 638.18945,497.17415 637.53906,496.87728 637.06641,496.28353 C 636.5,495.56868 636.2168,494.40462 636.2168,492.79134 M 637.30078,492.79134 C 637.30078,494.2015 637.46484,495.14095 637.79297,495.6097 C 638.125,496.07454 638.5332,496.30696 639.01758,496.30696 C 639.50195,496.30696 639.9082,496.07259 640.23633,495.60384 C 640.56835,495.13509 640.73437,494.19759 640.73438,492.79134 C 640.73437,491.37728 640.56835,490.43783 640.23633,489.97298 C 639.9082,489.50814 639.49804,489.27572 639.00586,489.27571 C 638.52148,489.27572 638.13476,489.4808 637.8457,489.89095 C 637.48242,490.41439 637.30078,491.38119 637.30078,492.79134"
         style="font-family:Arial"
         transform="matrix(2.2883105,0,0,2.2883105,-808.34513,-379.85446)" />
      <path
         id="path3455"
         d="M 506.13391,513.83431 L 559.38079,935.76147"
         style="fill:none;fill-rule:evenodd;stroke:#000000;stroke-width:1px;stroke-linecap:butt;stroke-linejoin:miter;stroke-opacity:1" />
      <path
         style="fill:none;fill-rule:evenodd;stroke:#000000;stroke-width:0.99999994px;stroke-linecap:butt;stroke-linejoin:miter;stroke-opacity:1"
         d="M 442.71123,487.15985 L 102.97002,742.95998"
         id="use3457" />
      <path
         style="fill:none;fill-rule:evenodd;stroke:#000000;stroke-width:1px;stroke-linecap:butt;stroke-linejoin:miter;stroke-opacity:1"
         d="M 373.33256,476.90298 L 629.23859,816.56445"
         id="use3459" />
      <path
         style="fill:none;fill-rule:evenodd;stroke:#000000;stroke-width:1px;stroke-linecap:butt;stroke-linejoin:miter;stroke-opacity:1"
         d="M 303.26088,485.77552 L 139.42372,878.22324"
         id="use3461" />
      <path
         id="path3463"
         d="M 639.17209,746.79674 L 299.89132,1003.2072"
         style="fill:none;fill-rule:evenodd;stroke:#000000;stroke-width:1px;stroke-linecap:butt;stroke-linejoin:miter;stroke-opacity:1" />
      <path
         id="path3465"
         d="M 601.24107,878.79864 L 179.24411,931.48982"
         style="fill:none;fill-rule:evenodd;stroke:#000000;stroke-width:1px;stroke-linecap:butt;stroke-linejoin:miter;stroke-opacity:1" />
      <path
         id="path3467"
         d="M 503.79331,977.89917 L 111.81936,812.93188"
         style="fill:none;fill-rule:evenodd;stroke:#000000;stroke-width:1px;stroke-linecap:butt;stroke-linejoin:miter;stroke-opacity:1" />
      <path
         id="path3469"
         d="M 369.70964,1012.7416 L 112.82368,673.82066"
         style="fill:none;fill-rule:evenodd;stroke:#000000;stroke-width:1px;stroke-linecap:butt;stroke-linejoin:miter;stroke-opacity:1" />
      <path
         id="path3471"
         d="M 237.41128,976.69118 L 183.94112,554.79219"
         style="fill:none;fill-rule:evenodd;stroke:#000000;stroke-width:1px;stroke-linecap:butt;stroke-linejoin:miter;stroke-opacity:1" />
    </g>
  </g>
</svg>
