<?xml version="1.0" encoding="UTF-8" standalone="no"?>
<!-- Created with Inkscape (http://www.inkscape.org/) -->

<svg
   xmlns:dc="http://purl.org/dc/elements/1.1/"
   xmlns:cc="http://creativecommons.org/ns#"
   xmlns:rdf="http://www.w3.org/1999/02/22-rdf-syntax-ns#"
   xmlns:svg="http://www.w3.org/2000/svg"
   xmlns="http://www.w3.org/2000/svg"
   xmlns:xlink="http://www.w3.org/1999/xlink"
   xmlns:sodipodi="http://sodipodi.sourceforge.net/DTD/sodipodi-0.dtd"
   xmlns:inkscape="http://www.inkscape.org/namespaces/inkscape"
   version="1.1"
   width="340.15909"
   height="388.97745"
   id="svg2"
   inkscape:version="0.48.1 r9760"
   sodipodi:docname="free-fokker-block.svg">
  <sodipodi:namedview
     pagecolor="#ffffff"
     bordercolor="#666666"
     borderopacity="1"
     objecttolerance="10"
     gridtolerance="10"
     guidetolerance="10"
     inkscape:pageopacity="0"
     inkscape:pageshadow="2"
     inkscape:window-width="640"
     inkscape:window-height="480"
     id="namedview4965"
     showgrid="false"
     fit-margin-top="0"
     fit-margin-left="0"
     fit-margin-right="0"
     fit-margin-bottom="0"
     inkscape:zoom="0.40051843"
     inkscape:cx="170.07956"
     inkscape:cy="223.26587"
     inkscape:window-x="202"
     inkscape:window-y="129"
     inkscape:window-maximized="0"
     inkscape:current-layer="svg2" />
  <defs
     id="defs4" />
  <metadata
     id="metadata7">
    <rdf:RDF>
      <cc:Work
         rdf:about="">
        <dc:format>image/svg+xml</dc:format>
        <dc:type
           rdf:resource="http://purl.org/dc/dcmitype/StillImage" />
        <dc:title />
      </cc:Work>
    </rdf:RDF>
  </metadata>
  <g
     transform="translate(-285.21583,-397.18237)"
     id="layer1">
    <path
       d="m 328.88154,418.23746 a 3.083265,3.083265 0 1 1 -6.16653,0 3.083265,3.083265 0 1 1 6.16653,0 z"
       id="path3755"
       style="fill:#000000;fill-opacity:1;fill-rule:nonzero;stroke:none"
       inkscape:connector-curvature="0" />
    <use
       id="use4397"
       x="0"
       y="0"
       width="744.09448"
       height="1052.3622"
       xlink:href="#path3755" />
    <use
       transform="matrix(0,-1,1,0,-92.43918,781.03491)"
       id="use4399"
       x="0"
       y="0"
       width="744.09448"
       height="1052.3622"
       xlink:href="#path3755" />
    <use
       transform="translate(0,73.998344)"
       id="use4401"
       x="0"
       y="0"
       width="744.09448"
       height="1052.3622"
       xlink:href="#path3755" />
    <use
       transform="matrix(0,-1,1,0,-92.43918,855.03326)"
       id="use4403"
       x="0"
       y="0"
       width="744.09448"
       height="1052.3622"
       xlink:href="#path3755" />
    <use
       transform="translate(0,147.99669)"
       id="use4405"
       x="0"
       y="0"
       width="744.09448"
       height="1052.3622"
       xlink:href="#path3755" />
    <use
       transform="matrix(0,-1,1,0,-92.43918,929.0316)"
       id="use4407"
       x="0"
       y="0"
       width="744.09448"
       height="1052.3622"
       xlink:href="#path3755" />
    <use
       transform="translate(0,221.99503)"
       id="use4409"
       x="0"
       y="0"
       width="744.09448"
       height="1052.3622"
       xlink:href="#path3755" />
    <use
       transform="matrix(0,-1,1,0,-92.43918,1003.0299)"
       id="use4411"
       x="0"
       y="0"
       width="744.09448"
       height="1052.3622"
       xlink:href="#path3755" />
    <use
       transform="translate(0,295.99338)"
       id="use4413"
       x="0"
       y="0"
       width="744.09448"
       height="1052.3622"
       xlink:href="#path3755" />
    <use
       transform="matrix(0,-1,1,0,-92.43918,1077.0283)"
       id="use4415"
       x="0"
       y="0"
       width="744.09448"
       height="1052.3622"
       xlink:href="#path3755" />
    <use
       transform="matrix(0,1,-1,0,781.03491,92.43918)"
       id="use4417"
       x="0"
       y="0"
       width="744.09448"
       height="1052.3622"
       xlink:href="#path3755" />
    <use
       transform="matrix(-1,0,0,-1,688.59573,873.47409)"
       id="use4419"
       x="0"
       y="0"
       width="744.09448"
       height="1052.3622"
       xlink:href="#path3755" />
    <use
       transform="matrix(0,1,-1,0,781.03491,166.43752)"
       id="use4421"
       x="0"
       y="0"
       width="744.09448"
       height="1052.3622"
       xlink:href="#path3755" />
    <use
       transform="matrix(-1,0,0,-1,688.59573,947.47244)"
       id="use4423"
       x="0"
       y="0"
       width="744.09448"
       height="1052.3622"
       xlink:href="#path3755" />
    <use
       transform="matrix(0,1,-1,0,781.03491,240.43587)"
       id="use4425"
       x="0"
       y="0"
       width="744.09448"
       height="1052.3622"
       xlink:href="#path3755" />
    <use
       transform="matrix(-1,0,0,-1,688.59573,1021.4708)"
       id="use4427"
       x="0"
       y="0"
       width="744.09448"
       height="1052.3622"
       xlink:href="#path3755" />
    <use
       transform="matrix(0,1,-1,0,781.03491,314.43421)"
       id="use4429"
       x="0"
       y="0"
       width="744.09448"
       height="1052.3622"
       xlink:href="#path3755" />
    <use
       transform="matrix(-1,0,0,-1,688.59573,1095.4691)"
       id="use4431"
       x="0"
       y="0"
       width="744.09448"
       height="1052.3622"
       xlink:href="#path3755" />
    <use
       transform="matrix(0,1,-1,0,781.03491,388.43256)"
       id="use4433"
       x="0"
       y="0"
       width="744.09448"
       height="1052.3622"
       xlink:href="#path3755" />
    <use
       transform="matrix(-1,0,0,-1,688.59573,1169.4675)"
       id="use4435"
       x="0"
       y="0"
       width="744.09448"
       height="1052.3622"
       xlink:href="#path3755" />
    <use
       transform="translate(73.998344,0)"
       id="use4437"
       x="0"
       y="0"
       width="744.09448"
       height="1052.3622"
       xlink:href="#path3755" />
    <use
       transform="matrix(0,-1,1,0,-18.440836,781.03491)"
       id="use4439"
       x="0"
       y="0"
       width="744.09448"
       height="1052.3622"
       xlink:href="#path3755" />
    <use
       transform="translate(73.998344,73.998344)"
       id="use4441"
       x="0"
       y="0"
       width="744.09448"
       height="1052.3622"
       xlink:href="#path3755" />
    <use
       transform="matrix(0,-1,1,0,-18.440836,855.03326)"
       id="use4443"
       x="0"
       y="0"
       width="744.09448"
       height="1052.3622"
       xlink:href="#path3755" />
    <use
       transform="translate(73.998344,147.99669)"
       id="use4445"
       x="0"
       y="0"
       width="744.09448"
       height="1052.3622"
       xlink:href="#path3755" />
    <use
       transform="matrix(0,-1,1,0,-18.440836,929.0316)"
       id="use4447"
       x="0"
       y="0"
       width="744.09448"
       height="1052.3622"
       xlink:href="#path3755" />
    <use
       transform="translate(73.998344,221.99503)"
       id="use4449"
       x="0"
       y="0"
       width="744.09448"
       height="1052.3622"
       xlink:href="#path3755" />
    <use
       transform="matrix(0,-1,1,0,-18.440836,1003.0299)"
       id="use4451"
       x="0"
       y="0"
       width="744.09448"
       height="1052.3622"
       xlink:href="#path3755" />
    <use
       transform="translate(73.998344,295.99338)"
       id="use4453"
       x="0"
       y="0"
       width="744.09448"
       height="1052.3622"
       xlink:href="#path3755" />
    <use
       transform="matrix(0,-1,1,0,-18.440836,1077.0283)"
       id="use4455"
       x="0"
       y="0"
       width="744.09448"
       height="1052.3622"
       xlink:href="#path3755" />
    <use
       transform="matrix(0,1,-1,0,855.03326,92.43918)"
       id="use4457"
       x="0"
       y="0"
       width="744.09448"
       height="1052.3622"
       xlink:href="#path3755" />
    <use
       transform="matrix(-1,0,0,-1,762.59408,873.47409)"
       id="use4459"
       x="0"
       y="0"
       width="744.09448"
       height="1052.3622"
       xlink:href="#path3755" />
    <use
       transform="matrix(0,1,-1,0,855.03326,166.43752)"
       id="use4461"
       x="0"
       y="0"
       width="744.09448"
       height="1052.3622"
       xlink:href="#path3755" />
    <use
       transform="matrix(-1,0,0,-1,762.59408,947.47244)"
       id="use4463"
       x="0"
       y="0"
       width="744.09448"
       height="1052.3622"
       xlink:href="#path3755" />
    <use
       transform="matrix(0,1,-1,0,855.03326,240.43587)"
       id="use4465"
       x="0"
       y="0"
       width="744.09448"
       height="1052.3622"
       xlink:href="#path3755" />
    <use
       transform="matrix(-1,0,0,-1,762.59408,1021.4708)"
       id="use4467"
       x="0"
       y="0"
       width="744.09448"
       height="1052.3622"
       xlink:href="#path3755" />
    <use
       transform="matrix(0,1,-1,0,855.03326,314.43421)"
       id="use4469"
       x="0"
       y="0"
       width="744.09448"
       height="1052.3622"
       xlink:href="#path3755" />
    <use
       transform="matrix(-1,0,0,-1,762.59408,1095.4691)"
       id="use4471"
       x="0"
       y="0"
       width="744.09448"
       height="1052.3622"
       xlink:href="#path3755" />
    <use
       transform="matrix(0,1,-1,0,855.03326,388.43256)"
       id="use4473"
       x="0"
       y="0"
       width="744.09448"
       height="1052.3622"
       xlink:href="#path3755" />
    <use
       transform="matrix(-1,0,0,-1,762.59408,1169.4675)"
       id="use4475"
       x="0"
       y="0"
       width="744.09448"
       height="1052.3622"
       xlink:href="#path3755" />
    <use
       transform="translate(147.99669,0)"
       id="use4477"
       x="0"
       y="0"
       width="744.09448"
       height="1052.3622"
       xlink:href="#path3755" />
    <use
       transform="matrix(0,-1,1,0,55.557509,781.03491)"
       id="use4479"
       x="0"
       y="0"
       width="744.09448"
       height="1052.3622"
       xlink:href="#path3755" />
    <use
       transform="translate(147.99669,73.998344)"
       id="use4481"
       x="0"
       y="0"
       width="744.09448"
       height="1052.3622"
       xlink:href="#path3755" />
    <use
       transform="matrix(0,-1,1,0,55.557509,855.03326)"
       id="use4483"
       x="0"
       y="0"
       width="744.09448"
       height="1052.3622"
       xlink:href="#path3755" />
    <use
       transform="translate(147.99669,147.99669)"
       id="use4485"
       x="0"
       y="0"
       width="744.09448"
       height="1052.3622"
       xlink:href="#path3755" />
    <use
       transform="matrix(0,-1,1,0,55.557509,929.0316)"
       id="use4487"
       x="0"
       y="0"
       width="744.09448"
       height="1052.3622"
       xlink:href="#path3755" />
    <use
       transform="translate(147.99669,221.99503)"
       id="use4489"
       x="0"
       y="0"
       width="744.09448"
       height="1052.3622"
       xlink:href="#path3755" />
    <use
       transform="matrix(0,-1,1,0,55.557509,1003.0299)"
       id="use4491"
       x="0"
       y="0"
       width="744.09448"
       height="1052.3622"
       xlink:href="#path3755" />
    <use
       transform="translate(147.99669,295.99338)"
       id="use4493"
       x="0"
       y="0"
       width="744.09448"
       height="1052.3622"
       xlink:href="#path3755" />
    <use
       transform="matrix(0,-1,1,0,55.557509,1077.0283)"
       id="use4495"
       x="0"
       y="0"
       width="744.09448"
       height="1052.3622"
       xlink:href="#path3755" />
    <use
       transform="matrix(0,1,-1,0,929.0316,92.43918)"
       id="use4497"
       x="0"
       y="0"
       width="744.09448"
       height="1052.3622"
       xlink:href="#path3755" />
    <use
       transform="matrix(-1,0,0,-1,836.59242,873.47409)"
       id="use4499"
       x="0"
       y="0"
       width="744.09448"
       height="1052.3622"
       xlink:href="#path3755" />
    <use
       transform="matrix(0,1,-1,0,929.0316,166.43752)"
       id="use4501"
       x="0"
       y="0"
       width="744.09448"
       height="1052.3622"
       xlink:href="#path3755" />
    <use
       transform="matrix(-1,0,0,-1,836.59242,947.47244)"
       id="use4503"
       x="0"
       y="0"
       width="744.09448"
       height="1052.3622"
       xlink:href="#path3755" />
    <use
       transform="matrix(0,1,-1,0,929.0316,240.43587)"
       id="use4505"
       x="0"
       y="0"
       width="744.09448"
       height="1052.3622"
       xlink:href="#path3755" />
    <use
       transform="matrix(-1,0,0,-1,836.59242,1021.4708)"
       id="use4507"
       x="0"
       y="0"
       width="744.09448"
       height="1052.3622"
       xlink:href="#path3755" />
    <use
       transform="matrix(0,1,-1,0,929.0316,314.43421)"
       id="use4509"
       x="0"
       y="0"
       width="744.09448"
       height="1052.3622"
       xlink:href="#path3755" />
    <use
       transform="matrix(-1,0,0,-1,836.59242,1095.4691)"
       id="use4511"
       x="0"
       y="0"
       width="744.09448"
       height="1052.3622"
       xlink:href="#path3755" />
    <use
       transform="matrix(0,1,-1,0,929.0316,388.43256)"
       id="use4513"
       x="0"
       y="0"
       width="744.09448"
       height="1052.3622"
       xlink:href="#path3755" />
    <use
       transform="matrix(-1,0,0,-1,836.59242,1169.4675)"
       id="use4515"
       x="0"
       y="0"
       width="744.09448"
       height="1052.3622"
       xlink:href="#path3755" />
    <use
       transform="translate(221.99503,0)"
       id="use4517"
       x="0"
       y="0"
       width="744.09448"
       height="1052.3622"
       xlink:href="#path3755" />
    <use
       transform="matrix(0,-1,1,0,129.55585,781.03491)"
       id="use4519"
       x="0"
       y="0"
       width="744.09448"
       height="1052.3622"
       xlink:href="#path3755" />
    <use
       transform="translate(221.99503,73.998344)"
       id="use4521"
       x="0"
       y="0"
       width="744.09448"
       height="1052.3622"
       xlink:href="#path3755" />
    <use
       transform="matrix(0,-1,1,0,129.55585,855.03326)"
       id="use4523"
       x="0"
       y="0"
       width="744.09448"
       height="1052.3622"
       xlink:href="#path3755" />
    <use
       transform="translate(221.99503,147.99669)"
       id="use4525"
       x="0"
       y="0"
       width="744.09448"
       height="1052.3622"
       xlink:href="#path3755" />
    <use
       transform="matrix(0,-1,1,0,129.55585,929.0316)"
       id="use4527"
       x="0"
       y="0"
       width="744.09448"
       height="1052.3622"
       xlink:href="#path3755" />
    <use
       transform="translate(221.99503,221.99503)"
       id="use4529"
       x="0"
       y="0"
       width="744.09448"
       height="1052.3622"
       xlink:href="#path3755" />
    <use
       transform="matrix(0,-1,1,0,129.55585,1003.0299)"
       id="use4531"
       x="0"
       y="0"
       width="744.09448"
       height="1052.3622"
       xlink:href="#path3755" />
    <use
       transform="translate(221.99503,295.99338)"
       id="use4533"
       x="0"
       y="0"
       width="744.09448"
       height="1052.3622"
       xlink:href="#path3755" />
    <use
       transform="matrix(0,-1,1,0,129.55585,1077.0283)"
       id="use4535"
       x="0"
       y="0"
       width="744.09448"
       height="1052.3622"
       xlink:href="#path3755" />
    <use
       transform="matrix(0,1,-1,0,1003.0299,92.43918)"
       id="use4537"
       x="0"
       y="0"
       width="744.09448"
       height="1052.3622"
       xlink:href="#path3755" />
    <use
       transform="matrix(-1,0,0,-1,910.59077,873.47409)"
       id="use4539"
       x="0"
       y="0"
       width="744.09448"
       height="1052.3622"
       xlink:href="#path3755" />
    <use
       transform="matrix(0,1,-1,0,1003.0299,166.43752)"
       id="use4541"
       x="0"
       y="0"
       width="744.09448"
       height="1052.3622"
       xlink:href="#path3755" />
    <use
       transform="matrix(-1,0,0,-1,910.59077,947.47244)"
       id="use4543"
       x="0"
       y="0"
       width="744.09448"
       height="1052.3622"
       xlink:href="#path3755" />
    <use
       transform="matrix(0,1,-1,0,1003.0299,240.43587)"
       id="use4545"
       x="0"
       y="0"
       width="744.09448"
       height="1052.3622"
       xlink:href="#path3755" />
    <use
       transform="matrix(-1,0,0,-1,910.59077,1021.4708)"
       id="use4547"
       x="0"
       y="0"
       width="744.09448"
       height="1052.3622"
       xlink:href="#path3755" />
    <use
       transform="matrix(0,1,-1,0,1003.0299,314.43421)"
       id="use4549"
       x="0"
       y="0"
       width="744.09448"
       height="1052.3622"
       xlink:href="#path3755" />
    <use
       transform="matrix(-1,0,0,-1,910.59077,1095.4691)"
       id="use4551"
       x="0"
       y="0"
       width="744.09448"
       height="1052.3622"
       xlink:href="#path3755" />
    <use
       transform="matrix(0,1,-1,0,1003.0299,388.43256)"
       id="use4553"
       x="0"
       y="0"
       width="744.09448"
       height="1052.3622"
       xlink:href="#path3755" />
    <use
       transform="matrix(-1,0,0,-1,910.59077,1169.4675)"
       id="use4555"
       x="0"
       y="0"
       width="744.09448"
       height="1052.3622"
       xlink:href="#path3755" />
    <g
       transform="translate(-18.499587,-18.499586)"
       id="g4629">
      <path
         d="M 361.76969,416.18196 459.4064,803.64552"
         id="path4609"
         style="fill:none;stroke:#000000;stroke-width:1px;stroke-linecap:butt;stroke-linejoin:miter;stroke-opacity:1"
         inkscape:connector-curvature="0" />
      <path
         d="M 454.78151,416.69584 552.41822,804.1594"
         id="path4609-8"
         style="fill:none;stroke:#000000;stroke-width:1px;stroke-linecap:butt;stroke-linejoin:miter;stroke-opacity:1"
         inkscape:connector-curvature="0" />
    </g>
    <g
       transform="translate(-2.0555096,5.1387746)"
       id="g4653">
      <path
         d="M 295.99339,423.37624 626.93044,643.31577"
         id="path4633"
         style="fill:none;stroke:#000000;stroke-width:1px;stroke-linecap:butt;stroke-linejoin:miter;stroke-opacity:1"
         inkscape:connector-curvature="0" />
      <path
         d="M 287.77134,540.54029 618.70839,760.47982"
         id="path4633-5"
         style="fill:none;stroke:#000000;stroke-width:1px;stroke-linecap:butt;stroke-linejoin:miter;stroke-opacity:1"
         inkscape:connector-curvature="0" />
    </g>
    <path
       d="m 85.303649,81.164879 a 9.763671,9.763671 0 1 1 -19.527342,0 9.763671,9.763671 0 1 1 19.527342,0 z"
       transform="translate(323.24276,522.56846)"
       id="path4659"
       style="fill:none;stroke:#000000;stroke-width:1;stroke-miterlimit:4;stroke-opacity:1;stroke-dasharray:none;stroke-dashoffset:0"
       inkscape:connector-curvature="0" />
  </g>
</svg>
