<?xml version="1.0" encoding="UTF-8" standalone="no"?>
<!-- Created with Inkscape (http://www.inkscape.org/) -->

<svg
   xmlns:dc="http://purl.org/dc/elements/1.1/"
   xmlns:cc="http://creativecommons.org/ns#"
   xmlns:rdf="http://www.w3.org/1999/02/22-rdf-syntax-ns#"
   xmlns:svg="http://www.w3.org/2000/svg"
   xmlns="http://www.w3.org/2000/svg"
   xmlns:xlink="http://www.w3.org/1999/xlink"
   version="1.1"
   width="345.81833"
   height="457.03372"
   id="svg2">
  <defs
     id="defs4" />
  <metadata
     id="metadata7">
    <rdf:RDF>
      <cc:Work
         rdf:about="">
        <dc:format>image/svg+xml</dc:format>
        <dc:type
           rdf:resource="http://purl.org/dc/dcmitype/StillImage" />
        <dc:title></dc:title>
      </cc:Work>
    </rdf:RDF>
  </metadata>
  <g
     transform="translate(-278.19458,-334.36139)"
     id="layer1">
    <path
       d="m 328.88154,418.23746 a 3.0832644,3.0832644 0 1 1 -6.16653,0 3.0832644,3.0832644 0 1 1 6.16653,0 z"
       id="path3755"
       style="fill:#000000;fill-opacity:1;fill-rule:nonzero;stroke:none" />
    <use
       id="use4397"
       x="0"
       y="0"
       width="744.09448"
       height="1052.3622"
       xlink:href="#path3755" />
    <use
       transform="matrix(0,-1,1,0,-92.43918,781.03491)"
       id="use4399"
       x="0"
       y="0"
       width="744.09448"
       height="1052.3622"
       xlink:href="#path3755" />
    <use
       transform="translate(0,73.998344)"
       id="use4401"
       x="0"
       y="0"
       width="744.09448"
       height="1052.3622"
       xlink:href="#path3755" />
    <use
       transform="matrix(0,-1,1,0,-92.43918,855.03326)"
       id="use4403"
       x="0"
       y="0"
       width="744.09448"
       height="1052.3622"
       xlink:href="#path3755" />
    <use
       transform="translate(0,147.99669)"
       id="use4405"
       x="0"
       y="0"
       width="744.09448"
       height="1052.3622"
       xlink:href="#path3755" />
    <use
       transform="matrix(0,-1,1,0,-92.43918,929.0316)"
       id="use4407"
       x="0"
       y="0"
       width="744.09448"
       height="1052.3622"
       xlink:href="#path3755" />
    <use
       transform="translate(0,221.99503)"
       id="use4409"
       x="0"
       y="0"
       width="744.09448"
       height="1052.3622"
       xlink:href="#path3755" />
    <use
       transform="matrix(0,-1,1,0,-92.43918,1003.0299)"
       id="use4411"
       x="0"
       y="0"
       width="744.09448"
       height="1052.3622"
       xlink:href="#path3755" />
    <use
       transform="translate(0,295.99338)"
       id="use4413"
       x="0"
       y="0"
       width="744.09448"
       height="1052.3622"
       xlink:href="#path3755" />
    <use
       transform="matrix(0,-1,1,0,-92.43918,1077.0283)"
       id="use4415"
       x="0"
       y="0"
       width="744.09448"
       height="1052.3622"
       xlink:href="#path3755" />
    <use
       transform="matrix(0,1,-1,0,781.03491,92.43918)"
       id="use4417"
       x="0"
       y="0"
       width="744.09448"
       height="1052.3622"
       xlink:href="#path3755" />
    <use
       transform="matrix(-1,0,0,-1,688.59573,873.47409)"
       id="use4419"
       x="0"
       y="0"
       width="744.09448"
       height="1052.3622"
       xlink:href="#path3755" />
    <use
       transform="matrix(0,1,-1,0,781.03491,166.43752)"
       id="use4421"
       x="0"
       y="0"
       width="744.09448"
       height="1052.3622"
       xlink:href="#path3755" />
    <use
       transform="matrix(-1,0,0,-1,688.59573,947.47244)"
       id="use4423"
       x="0"
       y="0"
       width="744.09448"
       height="1052.3622"
       xlink:href="#path3755" />
    <use
       transform="matrix(0,1,-1,0,781.03491,240.43587)"
       id="use4425"
       x="0"
       y="0"
       width="744.09448"
       height="1052.3622"
       xlink:href="#path3755" />
    <use
       transform="matrix(-1,0,0,-1,688.59573,1021.4708)"
       id="use4427"
       x="0"
       y="0"
       width="744.09448"
       height="1052.3622"
       xlink:href="#path3755" />
    <use
       transform="matrix(0,1,-1,0,781.03491,314.43421)"
       id="use4429"
       x="0"
       y="0"
       width="744.09448"
       height="1052.3622"
       xlink:href="#path3755" />
    <use
       transform="matrix(-1,0,0,-1,688.59573,1095.4691)"
       id="use4431"
       x="0"
       y="0"
       width="744.09448"
       height="1052.3622"
       xlink:href="#path3755" />
    <use
       transform="matrix(0,1,-1,0,781.03491,388.43256)"
       id="use4433"
       x="0"
       y="0"
       width="744.09448"
       height="1052.3622"
       xlink:href="#path3755" />
    <use
       transform="matrix(-1,0,0,-1,688.59573,1169.4675)"
       id="use4435"
       x="0"
       y="0"
       width="744.09448"
       height="1052.3622"
       xlink:href="#path3755" />
    <use
       transform="translate(73.998344,0)"
       id="use4437"
       x="0"
       y="0"
       width="744.09448"
       height="1052.3622"
       xlink:href="#path3755" />
    <use
       transform="matrix(0,-1,1,0,-18.440836,781.03491)"
       id="use4439"
       x="0"
       y="0"
       width="744.09448"
       height="1052.3622"
       xlink:href="#path3755" />
    <use
       transform="translate(73.998344,73.998344)"
       id="use4441"
       x="0"
       y="0"
       width="744.09448"
       height="1052.3622"
       xlink:href="#path3755" />
    <use
       transform="matrix(0,-1,1,0,-18.440836,855.03326)"
       id="use4443"
       x="0"
       y="0"
       width="744.09448"
       height="1052.3622"
       xlink:href="#path3755" />
    <use
       transform="translate(73.998344,147.99669)"
       id="use4445"
       x="0"
       y="0"
       width="744.09448"
       height="1052.3622"
       xlink:href="#path3755" />
    <use
       transform="matrix(0,-1,1,0,-18.440836,929.0316)"
       id="use4447"
       x="0"
       y="0"
       width="744.09448"
       height="1052.3622"
       xlink:href="#path3755" />
    <use
       transform="translate(73.998344,221.99503)"
       id="use4449"
       x="0"
       y="0"
       width="744.09448"
       height="1052.3622"
       xlink:href="#path3755" />
    <use
       transform="matrix(0,-1,1,0,-18.440836,1003.0299)"
       id="use4451"
       x="0"
       y="0"
       width="744.09448"
       height="1052.3622"
       xlink:href="#path3755" />
    <use
       transform="translate(73.998344,295.99338)"
       id="use4453"
       x="0"
       y="0"
       width="744.09448"
       height="1052.3622"
       xlink:href="#path3755" />
    <use
       transform="matrix(0,-1,1,0,-18.440836,1077.0283)"
       id="use4455"
       x="0"
       y="0"
       width="744.09448"
       height="1052.3622"
       xlink:href="#path3755" />
    <use
       transform="matrix(0,1,-1,0,855.03326,92.43918)"
       id="use4457"
       x="0"
       y="0"
       width="744.09448"
       height="1052.3622"
       xlink:href="#path3755" />
    <use
       transform="matrix(-1,0,0,-1,762.59408,873.47409)"
       id="use4459"
       x="0"
       y="0"
       width="744.09448"
       height="1052.3622"
       xlink:href="#path3755" />
    <use
       transform="matrix(0,1,-1,0,855.03326,166.43752)"
       id="use4461"
       x="0"
       y="0"
       width="744.09448"
       height="1052.3622"
       xlink:href="#path3755" />
    <use
       transform="matrix(-1,0,0,-1,762.59408,947.47244)"
       id="use4463"
       x="0"
       y="0"
       width="744.09448"
       height="1052.3622"
       xlink:href="#path3755" />
    <use
       transform="matrix(0,1,-1,0,855.03326,240.43587)"
       id="use4465"
       x="0"
       y="0"
       width="744.09448"
       height="1052.3622"
       xlink:href="#path3755" />
    <use
       transform="matrix(-1,0,0,-1,762.59408,1021.4708)"
       id="use4467"
       x="0"
       y="0"
       width="744.09448"
       height="1052.3622"
       xlink:href="#path3755" />
    <use
       transform="matrix(0,1,-1,0,855.03326,314.43421)"
       id="use4469"
       x="0"
       y="0"
       width="744.09448"
       height="1052.3622"
       xlink:href="#path3755" />
    <use
       transform="matrix(-1,0,0,-1,762.59408,1095.4691)"
       id="use4471"
       x="0"
       y="0"
       width="744.09448"
       height="1052.3622"
       xlink:href="#path3755" />
    <use
       transform="matrix(0,1,-1,0,855.03326,388.43256)"
       id="use4473"
       x="0"
       y="0"
       width="744.09448"
       height="1052.3622"
       xlink:href="#path3755" />
    <use
       transform="matrix(-1,0,0,-1,762.59408,1169.4675)"
       id="use4475"
       x="0"
       y="0"
       width="744.09448"
       height="1052.3622"
       xlink:href="#path3755" />
    <use
       transform="translate(147.99669,0)"
       id="use4477"
       x="0"
       y="0"
       width="744.09448"
       height="1052.3622"
       xlink:href="#path3755" />
    <use
       transform="matrix(0,-1,1,0,55.557509,781.03491)"
       id="use4479"
       x="0"
       y="0"
       width="744.09448"
       height="1052.3622"
       xlink:href="#path3755" />
    <use
       transform="translate(147.99669,73.998344)"
       id="use4481"
       x="0"
       y="0"
       width="744.09448"
       height="1052.3622"
       xlink:href="#path3755" />
    <use
       transform="matrix(0,-1,1,0,55.557509,855.03326)"
       id="use4483"
       x="0"
       y="0"
       width="744.09448"
       height="1052.3622"
       xlink:href="#path3755" />
    <use
       transform="translate(147.99669,147.99669)"
       id="use4485"
       x="0"
       y="0"
       width="744.09448"
       height="1052.3622"
       xlink:href="#path3755" />
    <use
       transform="matrix(0,-1,1,0,55.557509,929.0316)"
       id="use4487"
       x="0"
       y="0"
       width="744.09448"
       height="1052.3622"
       xlink:href="#path3755" />
    <use
       transform="translate(147.99669,221.99503)"
       id="use4489"
       x="0"
       y="0"
       width="744.09448"
       height="1052.3622"
       xlink:href="#path3755" />
    <use
       transform="matrix(0,-1,1,0,55.557509,1003.0299)"
       id="use4491"
       x="0"
       y="0"
       width="744.09448"
       height="1052.3622"
       xlink:href="#path3755" />
    <use
       transform="translate(147.99669,295.99338)"
       id="use4493"
       x="0"
       y="0"
       width="744.09448"
       height="1052.3622"
       xlink:href="#path3755" />
    <use
       transform="matrix(0,-1,1,0,55.557509,1077.0283)"
       id="use4495"
       x="0"
       y="0"
       width="744.09448"
       height="1052.3622"
       xlink:href="#path3755" />
    <use
       transform="matrix(0,1,-1,0,929.0316,92.43918)"
       id="use4497"
       x="0"
       y="0"
       width="744.09448"
       height="1052.3622"
       xlink:href="#path3755" />
    <use
       transform="matrix(-1,0,0,-1,836.59242,873.47409)"
       id="use4499"
       x="0"
       y="0"
       width="744.09448"
       height="1052.3622"
       xlink:href="#path3755" />
    <use
       transform="matrix(0,1,-1,0,929.0316,166.43752)"
       id="use4501"
       x="0"
       y="0"
       width="744.09448"
       height="1052.3622"
       xlink:href="#path3755" />
    <use
       transform="matrix(-1,0,0,-1,836.59242,947.47244)"
       id="use4503"
       x="0"
       y="0"
       width="744.09448"
       height="1052.3622"
       xlink:href="#path3755" />
    <use
       transform="matrix(0,1,-1,0,929.0316,240.43587)"
       id="use4505"
       x="0"
       y="0"
       width="744.09448"
       height="1052.3622"
       xlink:href="#path3755" />
    <use
       transform="matrix(-1,0,0,-1,836.59242,1021.4708)"
       id="use4507"
       x="0"
       y="0"
       width="744.09448"
       height="1052.3622"
       xlink:href="#path3755" />
    <use
       transform="matrix(0,1,-1,0,929.0316,314.43421)"
       id="use4509"
       x="0"
       y="0"
       width="744.09448"
       height="1052.3622"
       xlink:href="#path3755" />
    <use
       transform="matrix(-1,0,0,-1,836.59242,1095.4691)"
       id="use4511"
       x="0"
       y="0"
       width="744.09448"
       height="1052.3622"
       xlink:href="#path3755" />
    <use
       transform="matrix(0,1,-1,0,929.0316,388.43256)"
       id="use4513"
       x="0"
       y="0"
       width="744.09448"
       height="1052.3622"
       xlink:href="#path3755" />
    <use
       transform="matrix(-1,0,0,-1,836.59242,1169.4675)"
       id="use4515"
       x="0"
       y="0"
       width="744.09448"
       height="1052.3622"
       xlink:href="#path3755" />
    <use
       transform="translate(221.99503,0)"
       id="use4517"
       x="0"
       y="0"
       width="744.09448"
       height="1052.3622"
       xlink:href="#path3755" />
    <use
       transform="matrix(0,-1,1,0,129.55585,781.03491)"
       id="use4519"
       x="0"
       y="0"
       width="744.09448"
       height="1052.3622"
       xlink:href="#path3755" />
    <use
       transform="translate(221.99503,73.998344)"
       id="use4521"
       x="0"
       y="0"
       width="744.09448"
       height="1052.3622"
       xlink:href="#path3755" />
    <use
       transform="matrix(0,-1,1,0,129.55585,855.03326)"
       id="use4523"
       x="0"
       y="0"
       width="744.09448"
       height="1052.3622"
       xlink:href="#path3755" />
    <use
       transform="translate(221.99503,147.99669)"
       id="use4525"
       x="0"
       y="0"
       width="744.09448"
       height="1052.3622"
       xlink:href="#path3755" />
    <use
       transform="matrix(0,-1,1,0,129.55585,929.0316)"
       id="use4527"
       x="0"
       y="0"
       width="744.09448"
       height="1052.3622"
       xlink:href="#path3755" />
    <use
       transform="translate(221.99503,221.99503)"
       id="use4529"
       x="0"
       y="0"
       width="744.09448"
       height="1052.3622"
       xlink:href="#path3755" />
    <use
       transform="matrix(0,-1,1,0,129.55585,1003.0299)"
       id="use4531"
       x="0"
       y="0"
       width="744.09448"
       height="1052.3622"
       xlink:href="#path3755" />
    <use
       transform="translate(221.99503,295.99338)"
       id="use4533"
       x="0"
       y="0"
       width="744.09448"
       height="1052.3622"
       xlink:href="#path3755" />
    <use
       transform="matrix(0,-1,1,0,129.55585,1077.0283)"
       id="use4535"
       x="0"
       y="0"
       width="744.09448"
       height="1052.3622"
       xlink:href="#path3755" />
    <use
       transform="matrix(0,1,-1,0,1003.0299,92.43918)"
       id="use4537"
       x="0"
       y="0"
       width="744.09448"
       height="1052.3622"
       xlink:href="#path3755" />
    <use
       transform="matrix(-1,0,0,-1,910.59077,873.47409)"
       id="use4539"
       x="0"
       y="0"
       width="744.09448"
       height="1052.3622"
       xlink:href="#path3755" />
    <use
       transform="matrix(0,1,-1,0,1003.0299,166.43752)"
       id="use4541"
       x="0"
       y="0"
       width="744.09448"
       height="1052.3622"
       xlink:href="#path3755" />
    <use
       transform="matrix(-1,0,0,-1,910.59077,947.47244)"
       id="use4543"
       x="0"
       y="0"
       width="744.09448"
       height="1052.3622"
       xlink:href="#path3755" />
    <use
       transform="matrix(0,1,-1,0,1003.0299,240.43587)"
       id="use4545"
       x="0"
       y="0"
       width="744.09448"
       height="1052.3622"
       xlink:href="#path3755" />
    <use
       transform="matrix(-1,0,0,-1,910.59077,1021.4708)"
       id="use4547"
       x="0"
       y="0"
       width="744.09448"
       height="1052.3622"
       xlink:href="#path3755" />
    <use
       transform="matrix(0,1,-1,0,1003.0299,314.43421)"
       id="use4549"
       x="0"
       y="0"
       width="744.09448"
       height="1052.3622"
       xlink:href="#path3755" />
    <use
       transform="matrix(-1,0,0,-1,910.59077,1095.4691)"
       id="use4551"
       x="0"
       y="0"
       width="744.09448"
       height="1052.3622"
       xlink:href="#path3755" />
    <use
       transform="matrix(0,1,-1,0,1003.0299,388.43256)"
       id="use4553"
       x="0"
       y="0"
       width="744.09448"
       height="1052.3622"
       xlink:href="#path3755" />
    <use
       transform="matrix(-1,0,0,-1,910.59077,1169.4675)"
       id="use4555"
       x="0"
       y="0"
       width="744.09448"
       height="1052.3622"
       xlink:href="#path3755" />
    <g
       transform="translate(1.862048,-28.329341)"
       id="g4629">
      <path
         d="M 361.76969,416.18196 459.4064,803.64552"
         id="path4609"
         style="fill:none;stroke:#000000;stroke-width:1px;stroke-linecap:butt;stroke-linejoin:miter;stroke-opacity:1" />
      <path
         d="M 454.78151,416.69584 552.41822,804.1594"
         id="path4609-8"
         style="fill:none;stroke:#000000;stroke-width:1px;stroke-linecap:butt;stroke-linejoin:miter;stroke-opacity:1" />
    </g>
    <path
       d="M 286.91663,453.79153 617.85368,673.73106"
       id="path4633"
       style="fill:none;stroke:#000000;stroke-width:1px;stroke-linecap:butt;stroke-linejoin:miter;stroke-opacity:1" />
    <path
       d="M 278.69458,570.95558 609.63163,790.89511"
       id="path4633-5"
       style="fill:none;stroke:#000000;stroke-width:1px;stroke-linecap:butt;stroke-linejoin:miter;stroke-opacity:1" />
    <path
       d="m 85.303649,81.164879 a 9.7636709,9.7636709 0 1 1 -19.527342,0 9.7636709,9.7636709 0 1 1 19.527342,0 z"
       transform="translate(323.94489,448.8453)"
       id="path4659"
       style="fill:none;stroke:#000000;stroke-width:1;stroke-miterlimit:4;stroke-opacity:1;stroke-dasharray:none;stroke-dashoffset:0" />
    <path
       d="m 349.65842,415.44673 c 10.76592,0 21.53184,0 32.29777,0 2.34041,0 4.68083,0 7.02125,0 0.2392,0 2.42851,0.12667 2.8085,0 0.49648,-0.16549 0.90777,-0.53663 1.40425,-0.70212 0.22203,-0.074 0.49279,0.10467 0.70213,0 0.29604,-0.14802 0.38812,-0.59746 0.70212,-0.70213 4.82003,-1.60667 -3.27042,2.6884 3.51063,-0.70212 0.29604,-0.14802 0.42673,-0.51853 0.70212,-0.70213 0.87088,-0.58058 1.93763,-0.82366 2.80851,-1.40425 0.55079,-0.36719 0.81216,-1.10821 1.40425,-1.40425 0.20933,-0.10466 0.49279,0.10467 0.70212,0 0.29604,-0.14802 0.46809,-0.46808 0.70213,-0.70212 0.23404,-0.23405 0.46808,-0.46809 0.70212,-0.70213 0.36965,-0.36964 1.91888,-1.73138 2.10638,-2.10637 0.10467,-0.20934 -0.10467,-0.4928 0,-0.70213 0.14802,-0.29604 0.5541,-0.40608 0.70212,-0.70213 0.10467,-0.20933 0,-0.46808 0,-0.70212 0.23405,-0.23404 0.55411,-0.40608 0.70213,-0.70213 0.28085,-0.5617 -0.28085,-1.54467 0,-2.10637 0.14802,-0.29604 0.59746,-0.38813 0.70212,-0.70213 0.22204,-0.66609 0,-1.40425 0,-2.10637 0,-1.40425 0,-2.80851 0,-4.21276 0,-1.87233 0,-3.74466 0,-5.617 0,-0.31621 0.10685,-1.89269 0,-2.10637 -0.14802,-0.29605 -0.59745,-0.38813 -0.70212,-0.70213 -0.10705,-0.32114 0.15621,-2.49607 0,-2.8085 -0.14802,-0.29604 -0.59746,-0.38813 -0.70213,-0.70213 -0.10704,-0.32114 0.15622,-2.49607 0,-2.8085 -0.14802,-0.29604 -0.46808,-0.46808 -0.70212,-0.70212 0,-0.46809 0.14802,-0.96019 0,-1.40425 -0.10467,-0.314 -0.59746,-0.38813 -0.70213,-0.70213 -0.14802,-0.44406 0.14802,-0.96019 0,-1.40425 -0.10466,-0.314 -0.51852,-0.42673 -0.70212,-0.70213 -0.29029,-0.43544 -0.46809,-0.93616 -0.70213,-1.40425 -0.23404,-0.46808 -0.46808,-0.93616 -0.70212,-1.40425 0,-0.46808 0.14802,-0.96018 0,-1.40425 -0.10467,-0.314 -0.55411,-0.40608 -0.70213,-0.70212 -0.28085,-0.5617 0.28085,-1.54468 0,-2.10638 -0.14802,-0.29604 -0.5541,-0.40608 -0.70212,-0.70212 -0.28085,-0.5617 0.28085,-1.54468 0,-2.10638 -0.14802,-0.29604 -0.55411,-0.40608 -0.70213,-0.70213 -0.20933,-0.41866 0.20933,-0.98558 0,-1.40425 -0.14802,-0.29604 -0.5541,-0.40608 -0.70212,-0.70212 -0.22065,-0.4413 0.22065,-2.3672 0,-2.8085 -0.14802,-0.29604 -0.55411,-0.40609 -0.70213,-0.70213 -0.22065,-0.4413 0.22065,-2.3672 0,-2.8085 -0.14802,-0.29604 -0.5541,-0.40608 -0.70212,-0.70212 -0.10684,-0.21369 0,-1.79017 0,-2.10638 0,-0.81273 -0.15672,-2.88378 0,-3.51063 0.12692,-0.50771 0.50776,-0.91835 0.70212,-1.40425 1.74112,-0.66261 0.39697,-1.89304 0.70213,-2.8085 0.16549,-0.49648 0.57519,-0.89654 0.70212,-1.40425 0.11353,-0.45411 0,-0.93617 0,-1.40425 0.23404,-0.46808 0.53663,-0.90777 0.70213,-1.40425 0.22049,-0.66148 -0.22761,-3.75753 0,-4.21275 0.14802,-0.29605 0.5541,-0.40609 0.70212,-0.70213 0.10684,-0.21368 0,-1.79017 0,-2.10638 0,-1.40425 0,-2.8085 0,-4.21275 0,-2.34042 0,-4.68083 0,-7.02125 0,-0.36716 0.0923,-2.62388 0,-2.8085 -0.14802,-0.29604 -0.5541,-0.40609 -0.70212,-0.70213 -0.28085,-0.5617 0.28085,-1.54467 0,-2.10637 -0.14802,-0.29605 -0.55411,-0.40609 -0.70213,-0.70213 -0.28085,-0.5617 0.28085,-1.54467 0,-2.10637 -0.14802,-0.29605 -0.5541,-0.40609 -0.70212,-0.70213 -0.10467,-0.20933 0,-0.46808 0,-0.70213 0,-0.46808 0.11352,-0.95014 0,-1.40425 -0.12693,-0.5077 -0.46809,-0.93616 -0.70213,-1.40425 -0.46808,-0.93616 -1.07326,-1.81554 -1.40425,-2.8085 -0.43233,-1.29697 1.07138,-0.33287 -0.70213,-2.10637 -0.16549,-0.1655 -0.53663,0.16549 -0.70212,0 -1.45272,-1.45273 2.21995,0.0568 -0.70213,-1.40425 -0.20933,-0.10467 -0.49279,0.10466 -0.70212,0 -0.29604,-0.14803 -0.40608,-0.55411 -0.70213,-0.70213 -0.70212,-0.23404 -1.40425,-0.46808 -2.10637,-0.70213 -0.23404,0 -0.4801,0.074 -0.70213,0 -0.49648,-0.16549 -0.90777,-0.53663 -1.40425,-0.70212 -0.22203,-0.074 -0.49279,0.10467 -0.70212,0 -0.29605,-0.14802 -0.40609,-0.55411 -0.70213,-0.70213 -0.46532,-0.23265 -2.22003,0.19616 -2.8085,0 -0.49648,-0.16549 -0.96881,-0.41183 -1.40425,-0.70212 -0.2754,-0.1836 -0.38102,-0.62185 -0.70213,-0.70213 -0.68116,-0.17029 -1.42521,0.17029 -2.10637,0 -0.32111,-0.0803 -0.38813,-0.59746 -0.70213,-0.70212 -0.44406,-0.14802 -0.93617,0 -1.40425,0 -0.23404,0 -0.49279,0.10466 -0.70212,0 -0.29605,-0.14802 -0.40609,-0.55411 -0.70213,-0.70213 -0.20933,-0.10466 -0.46808,0 -0.70212,0 -0.46809,0 -0.93617,0 -1.40426,0 -1.40425,0 -2.8085,0 -4.21275,0 -0.46808,0 -0.93616,0 -1.40425,0 -0.23404,0 -0.49279,0.10467 -0.70212,0 -0.29605,-0.14802 -0.46809,-0.46808 -0.70213,-0.70212 -0.23404,-0.23404 -0.5541,-0.40609 -0.70212,-0.70213 -0.10467,-0.20933 0.10466,-0.49279 0,-0.70212 -0.14803,-0.29605 -0.55411,-0.40609 -0.70213,-0.70213 -0.20933,-0.41867 0.33099,-1.07326 0,-1.40425 -0.16549,-0.16549 -0.53663,0.16549 -0.70212,0 -0.1655,-0.16549 0,-0.46808 0,-0.70213 0,-0.81272 0.15671,-2.88378 0,-3.51062 -0.8068,-3.22717 -0.70213,-0.1593 -0.70213,-2.10638 0,-0.33105 0.0318,-3.4788 0,-3.51062 -0.16549,-0.1655 -0.53663,0.16549 -0.70213,0 -0.33098,-0.33099 0.14803,-0.96019 0,-1.40426 -0.16549,-0.49647 -0.53663,-0.90777 -0.70212,-1.40425 -0.074,-0.22203 0.10467,-0.49279 0,-0.70212 -0.14802,-0.29604 -0.51853,-0.42673 -0.70213,-0.70213 -0.29029,-0.43544 -0.41183,-0.96881 -0.70212,-1.40425 -0.1836,-0.27539 -0.46809,-0.46808 -0.70213,-0.70212 -0.23404,-0.23404 -0.40608,-0.55411 -0.70212,-0.70213 -0.20934,-0.10466 -0.48483,0.0869 -0.70213,0 -0.9718,-0.38872 -1.8021,-1.11671 -2.8085,-1.40425 -0.67511,-0.19289 -1.41131,0.0993 -2.10638,0 -1.81178,0.72607 -2.76128,-1.11396 -4.21275,-1.40425 -1.14748,-0.2295 -2.37535,0.28382 -3.51062,0 -3.39053,-0.84763 0.0348,-0.33366 -2.10638,-1.40425 -0.41867,-0.20933 -0.96019,0.14802 -1.40425,0 -0.49648,-0.16549 -0.90777,-0.53663 -1.40425,-0.70213 -0.44406,-0.14802 -0.98559,0.20934 -1.40425,0 -0.29604,-0.14802 -0.40609,-0.5541 -0.70213,-0.70212 -0.41866,-0.20933 -1.07326,0.33098 -1.40425,0 -0.16549,-0.16549 0.16549,-0.53663 0,-0.70213 -0.33098,-0.33098 -0.98558,0.20934 -1.40425,0 -0.29604,-0.14802 -0.40608,-0.5541 -0.70212,-0.70212 -0.5617,-0.28085 -1.54468,0.28085 -2.10638,0 -0.29604,-0.14802 -0.40608,-0.55411 -0.70213,-0.70213 -0.41866,-0.20933 -0.98558,0.20934 -1.40425,0 -0.29604,-0.14802 -0.40608,-0.5541 -0.70212,-0.70212 -0.5617,-0.28085 -1.54468,0.28085 -2.10638,0 -0.29604,-0.14802 -0.46808,-0.46809 -0.70212,-0.70213 -0.46809,0 -0.96019,0.14802 -1.40425,0 -0.314,-0.10466 -0.40609,-0.5541 -0.70213,-0.70212 -0.4413,-0.22065 -2.3672,0.22065 -2.8085,0 -0.29604,-0.14802 -0.40608,-0.55411 -0.70213,-0.70213 -0.5617,-0.28085 -1.54467,0.28085 -2.10637,0 -0.20933,-0.10466 0.20933,-0.59746 0,-0.70212 -0.628,-0.314 -1.40425,0 -2.10638,0 -1.63829,0 -3.27658,0 -4.91487,0 -1.6383,0 -3.27659,0 -4.91488,0 -0.8051,0 -2.08118,-0.18183 -2.8085,0 -1.01542,0.25385 -1.81555,1.07326 -2.80851,1.40425 -0.22203,0.074 -0.49279,-0.10467 -0.70212,0 -0.29604,0.14802 -0.40608,0.5541 -0.70213,0.70212 -0.20933,0.10467 -0.49279,-0.10466 -0.70212,0 -0.18642,0.0932 -2.01317,1.91996 -2.10638,2.10638 -0.10466,0.20933 0.12983,0.50739 0,0.70212 -0.36719,0.5508 -1.03705,0.85346 -1.40425,1.40425 -0.12982,0.19474 0.10467,0.4928 0,0.70213 -0.37738,0.75476 -1.09085,1.32288 -1.40425,2.10638 -0.17384,0.4346 0.20933,0.98558 0,1.40425 -0.29604,0.59208 -1.03705,0.85345 -1.40425,1.40425 -0.12982,0.19473 0.074,0.48009 0,0.70212 -0.16549,0.49648 -0.53663,0.90778 -0.70212,1.40425 -0.074,0.22203 0.10466,0.4928 0,0.70213 -0.14803,0.29604 -0.55411,0.40608 -0.70213,0.70212 -0.10467,0.20934 0,0.46809 0,0.70213 -0.23404,0.23404 -0.5541,0.40608 -0.70213,0.70212 -0.28085,0.5617 0.28085,1.54468 0,2.10638 -0.14802,0.29604 -0.5541,0.40608 -0.70212,0.70213 -0.22065,0.4413 0.22065,2.3672 0,2.8085 -0.14802,0.29604 -0.5541,0.40608 -0.70213,0.70212 -0.10466,0.20934 0,0.46809 0,0.70213 0,0.73016 0.13808,3.66045 0,4.21275 -0.12692,0.50771 -0.57519,0.89654 -0.70212,1.40425 -0.11353,0.45411 0,0.93617 0,1.40425 0,0.46809 0,0.93617 0,1.40425 0,2.34042 0,4.68084 0,7.02126 0,2.8085 0,5.617 0,8.4255 0,0.70213 0,1.40425 0,2.10638 0,0.46808 -0.0918,0.94525 0,1.40425 2.54541,7.63622 -0.37005,-1.85027 0.70212,3.51062 0.14515,0.72574 0.55698,1.38065 0.70213,2.10638 0.0918,0.45899 0,0.93617 0,1.40425 0,0.93617 0,1.87233 0,2.8085 0,3.27659 0,6.55317 0,9.82976 0,3.04254 0,6.08508 0,9.12763 0,0.48835 -0.12696,3.25671 0,3.51062 0.14802,0.29604 0.5541,0.40609 0.70212,0.70213 0.22066,0.4413 -0.22065,2.3672 0,2.8085 0.14803,0.29604 0.55411,0.40608 0.70213,0.70212 0.10467,0.20934 0,0.46809 0,0.70213 0,0.23404 0,0.46808 0,0.70213 0,1.1702 0,2.34041 0,3.51062 0,0.23404 0,0.46809 0,0.70213 0,0.23404 -0.10467,0.49279 0,0.70212 0.14802,0.29604 0.5541,0.40609 0.70213,0.70213 0.10466,0.20933 0,0.46808 0,0.70212 0,0.46809 -0.14803,0.96019 0,1.40425 0.20933,0.628 1.1082,0.81217 1.40425,1.40425 0.10466,0.20934 0,0.46809 0,0.70213 0.23404,0.46808 0.41183,0.96881 0.70212,1.40425 0.1836,0.2754 0.55411,0.40608 0.70213,0.70213 0.20933,0.41866 -0.20934,0.98558 0,1.40425 0.14802,0.29604 0.46808,0.46808 0.70212,0.70212 0.23404,0.23404 0.40609,0.55411 0.70213,0.70213 0.20933,0.10466 0.53663,-0.1655 0.70212,0 0.1655,0.16549 0,0.46808 0,0.70212 0.23404,0 0.49279,-0.10466 0.70213,0 2.92208,1.46104 -0.7506,-0.0485 0.70212,1.40425 0.1655,0.1655 0.4928,-0.10466 0.70213,0 0.29604,0.14802 0.40608,0.55411 0.70212,0.70213 0.20934,0.10467 0.53664,-0.16549 0.70213,0 0.16549,0.16549 -0.16549,0.53663 0,0.70212 0.16549,0.1655 0.49279,-0.10466 0.70212,0 0.29605,0.14802 0.40609,0.55411 0.70213,0.70213 0.20933,0.10467 0.46808,0 0.70213,0 0.23404,0.23404 0.40608,0.5541 0.70212,0.70212 0.20933,0.10467 0.49279,-0.10466 0.70213,0 0.59208,0.29605 0.81216,1.10821 1.40425,1.40426 0.20933,0.10466 0.49279,-0.10467 0.70212,0 2.32866,2.32865 -0.66197,-0.33099 1.40425,0.70212 0.29604,0.14802 0.40609,0.5541 0.70213,0.70213 0.41866,0.20933 1.07326,-0.33099 1.40425,0 0.16549,0.16549 -0.16549,0.53663 0,0.70212 0.16549,0.16549 0.49279,-0.10467 0.70212,0 0.29605,0.14802 0.40609,0.55411 0.70213,0.70213 0.20933,0.10466 0.49279,-0.10467 0.70213,0 0.29604,0.14802 0.38812,0.59746 0.70212,0.70212 0.44406,0.14802 0.98558,-0.20933 1.40425,0 0.20933,0.10467 -0.16549,0.53663 0,0.70213 0.33099,0.33098 1.07327,-0.33099 1.40425,0 0.16549,0.16549 -0.16549,0.53663 0,0.70212 0.16549,0.1655 0.53663,-0.16549 0.70213,0 0.16549,0.1655 -0.1655,0.53664 0,0.70213 0.33098,0.33098 1.07326,-0.33099 1.40425,0 0.16549,0.16549 -0.16549,0.53663 0,0.70212 0.16549,0.1655 0.49279,-0.10466 0.70212,0 0.29605,0.14802 0.46809,0.46809 0.70213,0.70213 0.23404,0.23404 0.5541,0.40608 0.70212,0.70212 0.10467,0.20934 -0.16549,0.53664 0,0.70213 0.1655,0.16549 0.53664,-0.16549 0.70213,0 0.16549,0.16549 -0.16549,0.53663 0,0.70212 1.45272,1.45273 -0.0568,-2.21995 1.40425,0.70213 0.20933,0.41867 -0.20933,0.98558 0,1.40425 0.29604,0.59208 1.10821,0.81217 1.40425,1.40425 0.10467,0.20933 -0.10467,0.49279 0,0.70213 0.29604,0.59208 1.10821,0.81216 1.40425,1.40425 0.10467,0.20933 -0.10467,0.49279 0,0.70212 0.14802,0.29604 0.55411,0.40609 0.70213,0.70213 0.10466,0.20933 -0.10467,0.49279 0,0.70212 0.29604,0.59209 1.10821,0.81217 1.40425,1.40425 0.10466,0.20934 -0.10467,0.4928 0,0.70213 0.14525,0.2905 1.80877,1.90797 2.10637,2.10638 0.43544,0.29029 0.96881,0.41183 1.40425,0.70212 1.7465,1.16433 0.0807,0.16134 0.70213,1.40425 0.77622,1.55244 0.43577,0.21789 1.40425,0.70213 1.55244,0.77622 0.21788,0.43577 0.70213,1.40425 0.14802,0.29604 0.5541,0.40608 0.70212,0.70212 0.10467,0.20934 -0.16549,0.53664 0,0.70213 0.16549,0.16549 0.53663,-0.16549 0.70213,0 0.14354,0.14354 -0.1392,1.82799 0,2.10637 0.46893,0.93787 0.93531,0.46639 1.40425,1.40426 0.10466,0.20933 -0.10467,0.49279 0,0.70212 0.14802,0.29604 0.5541,0.40608 0.70212,0.70213 0.18741,0.37481 -0.18741,1.02943 0,1.40425 0.14802,0.29604 0.55411,0.40608 0.70213,0.70212 0.10466,0.20934 -0.1655,0.53663 0,0.70213 0.16549,0.16549 0.53663,-0.1655 0.70212,0 0.1655,0.16549 -0.10466,0.49279 0,0.70212 0.14802,0.29604 0.55411,0.40609 0.70213,0.70213 0.10466,0.20933 -0.16549,0.53663 0,0.70212 0.16549,0.1655 0.53663,-0.16549 0.70212,0 0.1655,0.1655 -0.10466,0.4928 0,0.70213 0.14802,0.29604 0.46809,0.46808 0.70213,0.70212 1.54597,1.54598 0.37757,0.63722 4.21275,1.40425 z"
       transform="translate(85.21583,168.40524)"
       id="path4699"
       style="fill:none;stroke:#000000;stroke-width:1px;stroke-linecap:butt;stroke-linejoin:miter;stroke-opacity:1" />
    <path
       d="M 292.57586,334.86139 623.51291,554.80092"
       id="path4633-8"
       style="fill:none;stroke:#000000;stroke-width:1px;stroke-linecap:butt;stroke-linejoin:miter;stroke-opacity:1" />
  </g>
</svg>
